<svg xmlns="http://www.w3.org/2000/svg" version="1.1" viewBox="-5.0 -10.0 110.0 135.0">
 <path style="fill:green" d="m264.45 405.59c-0.75391 2.1289-1.7734 4.2773-2.5938 5.918-1.1953 2.4805-1.2656 5.3203-0.019531 7.8047 1.0859 2.2148 3.1445 3.9453 5.6055 4.4336 3.5039 0.73047 6.5391-1.1758 8.3359-4.1016 0.19922-0.33203 0.375-0.64453 0.55469-0.95312-2.5938-0.37891-5.2734-0.92969-8.0039-1.6641-0.79688-0.22266-1.2852-1.0625-1.0625-1.8828 0.22266-0.79688 1.0625-1.2852 1.8867-1.0625 2.7266 0.77734 5.6523 1.3516 8.4688 1.7305 0.48438-1.418 0.79688-2.8594 0.99609-4.4102-2.3516-0.35547-4.7695-0.86328-7.2031-1.5273-0.80078-0.22266-1.2852-1.0625-1.0625-1.8867 0.22266-0.79688 1.0625-1.2852 1.8828-1.0625 2.1758 0.59766 4.3906 1.0859 6.6289 1.4414 0.089843-2.3516 0.046874-4.6992 0.46875-7.0273 0.15234-0.88672 0.84375-2.8594 1.6406-3.3711 0.51172-0.30859 1.043-0.59766 1.6172-0.86328-0.93359-2.3516-2.0625-4.7656-3.3477-7.1602-0.42188-0.75391-0.15234-1.6836 0.59766-2.1055 0.75391-0.39844 1.6875-0.10938 2.0859 0.62109 1.3516 2.5273 2.5273 5.0742 3.4805 7.582 0.82031-0.26562 1.6406-0.46484 2.4141-0.66406 0.42188 1.7969 0.089843 3.1055-0.73047 5.0742-0.26562 0.64453-0.42188 1.3516-0.42188 2.0391-0.042969 2.2812 1.2422 4.3672 3.1055 5.6094 0.75391 0.51172 1.5977 0.88672 2.4805 1.0625 3.6367 0.73047 6.4062-1.6406 7.7383-4.832 0.13281-0.28906 0.24219-0.57422 0.33203-0.88672-1.9492-0.55469-3.9922-1.0625-6.0977-1.4609-0.84375-0.17969-1.3945-0.95312-1.2188-1.7969 0.15625-0.84375 0.95312-1.375 1.7734-1.2188 2.1055 0.39844 4.1211 0.91016 6.0742 1.4844 0.13281-2.2383-0.26562-4.5-0.90625-6.6484 1.1758 0.046874 2.3281 0.089843 3.5039 0.17969 0.019531-2.8359-0.17969-5.8281-0.57422-8.9102-0.13281-0.84375 0.44141-1.6172 1.3086-1.75 0.82031-0.11328 1.5977 0.48828 1.7031 1.3281 0.44531 3.1914 0.62109 6.3203 0.57812 9.2891 2.7266-0.46484 5.1172-2.2812 6.0078-4.9883 1.4648-4.4531-1.707-8.0469-5.5625-9.7305-1.9922-0.88672-4.4531-1.4219-6.9141-1.75-0.089844 2.9023-0.35547 5.918-0.86328 8.9766-0.15234 0.84375-0.93359 1.3984-1.7734 1.2656-0.82031-0.13281-1.3945-0.92969-1.2656-1.75 0.51172-2.8828 0.80078-5.8945 0.88672-8.8203-0.88672-0.066406-1.7305-0.10938-2.5273-0.15625-0.19922-0.22266-0.39844-0.53125-0.55469-0.71094-2.4609-3.1484-5.2734-5.8516-8.4453-7.8047-0.15625 2.0391-0.39844 4.1445-0.75391 6.2969-0.13281 0.82031-0.90625 1.3945-1.7539 1.2422-0.84375-0.13281-1.3945-0.91016-1.2617-1.7539 0.44141-2.3711 0.6875-4.9414 0.82031-7.3594-1.2422-0.53125-2.5078-0.97656-3.8359-1.2852-0.042969 3.1055-0.33203 6.3398-0.88672 9.6641-0.13281 0.82031-0.92969 1.3945-1.7539 1.2656-0.84375-0.15625-1.3945-0.92969-1.2656-1.7734 0.53125-3.1719 0.84375-6.4492 0.88672-9.6641-0.95312-0.089844-1.9492-0.13672-2.9688-0.11328-3.9258 0.11328-7.9609 1.8164-8.8906 6.0312-0.71094 3.125 0.77734 6.582 3.6133 8.1133 0.62109 0.33203 1.2852 0.57422 1.9727 0.6875-0.30859 0.10938-0.64453 0.22266-0.94922 0.3125 2.793 4.5 5.1875 10.02 6.8047 16.184 0.22266 0.82031-0.26562 1.6602-1.0859 1.8633-0.82031 0.22266-1.6602-0.26562-1.8633-1.0859-1.3711-5.3867-3.7266-11.172-6.6719-15.914-1.7734 0.71094-3.5234 1.4648-5.2539 2.3047 1.1758 3.2344 2.7031 6.6289 4.6094 9.9961 0.42188 0.75391 0.17969 1.6836-0.57422 2.1055-0.73047 0.42188-1.6641 0.15625-2.0859-0.57422-1.9297-3.3945-3.4805-6.8281-4.6562-10.176-1.8164 0.95312-3.5898 1.9492-5.3164 2.9727 1.1953 4.2773 3.1055 8.8906 5.7188 13.5 0.42188 0.73047 0.17578 1.6875-0.57812 2.1055-0.73047 0.42188-1.6602 0.15234-2.082-0.57422-2.5508-4.5234-4.4531-9.0898-5.6953-13.434-2.8594 1.9062-4.6797 4.7656-4.7656 8.2695-0.066406 2.418 0.73047 4.7891 2.0859 6.7617 3.3906 5.0117 9.6641 6.8516 14.695 3.2383-1.1953-2.2383-2.3086-4.6328-3.3047-7.1602-0.3125-0.79688 0.089844-1.6836 0.86328-1.9922 0.77344-0.3125 1.6641 0.089844 1.9727 0.86328 0.82031 2.1719 1.8594 4.3906 2.9258 6.4297zm51.117 8.8203c0.73047-2.1055 1.75-4.2773 2.5703-5.918 1.1953-2.4805 1.2656-5.3203 0.019531-7.8008-1.0859-2.2188-3.1484-3.9258-5.6055-4.4336-3.5039-0.73047-6.5391 1.1758-8.3359 4.1016-0.19922 0.33594-0.37891 0.64453-0.55469 0.97656 2.6133 0.35547 5.2734 0.91016 8.0039 1.6406 0.82031 0.22266 1.2852 1.0625 1.0625 1.8867-0.22266 0.82031-1.0625 1.2852-1.8594 1.0625-2.7461-0.75391-5.6758-1.3516-8.4883-1.707-0.48437 1.3984-0.80078 2.8594-0.99609 4.3906 2.3477 0.35547 4.7656 0.86328 7.2031 1.5273 0.79688 0.22266 1.2852 1.0625 1.0625 1.8828-0.22266 0.82031-1.0625 1.2852-1.8867 1.0664-2.1719-0.60156-4.3906-1.0898-6.6055-1.4414-0.10938 2.3516-0.066406 4.6992-0.48828 7.0273-0.15234 0.88672-0.84375 2.8828-1.6406 3.3711-0.51172 0.33203-1.043 0.59766-1.5977 0.86328 0.91016 2.3711 2.0391 4.7656 3.3242 7.1602 0.42188 0.75391 0.15234 1.6875-0.60156 2.1055-0.75391 0.39844-1.6602 0.13281-2.0859-0.62109-1.3516-2.5273-2.5273-5.0547-3.4805-7.5586-0.81641 0.24219-1.6406 0.46484-2.4141 0.64062-0.42188-1.7969-0.089843-3.1055 0.73047-5.0742 0.26562-0.64062 0.42188-1.3281 0.42188-2.0391 0.042969-2.2617-1.2422-4.3672-3.1055-5.6094-0.75391-0.51172-1.5977-0.88672-2.4805-1.0625-3.6367-0.73047-6.4062 1.6406-7.7383 4.832-0.13281 0.28906-0.24219 0.57422-0.33203 0.88672 1.9492 0.57422 3.9883 1.0625 6.0977 1.4844 0.84375 0.15234 1.3945 0.92969 1.2188 1.7969-0.15234 0.82031-0.95312 1.3711-1.7695 1.1953-2.1055-0.39844-4.1211-0.88672-6.0742-1.4648-0.13281 2.2188 0.26562 4.5 0.90625 6.6289-1.1758-0.046875-2.3281-0.089843-3.5039-0.15625-0.019531 2.8398 0.17969 5.8281 0.57422 8.8906 0.13281 0.84375-0.44141 1.6406-1.3086 1.7539-0.82031 0.10938-1.5977-0.48828-1.7031-1.3086-0.42188-3.2148-0.62109-6.3398-0.57812-9.3125-2.7266 0.46484-5.1172 2.2812-6.0078 5.0117-1.4648 4.4336 1.7305 8.0234 5.5625 9.7305 1.9961 0.86328 4.457 1.3945 6.9141 1.7305 0.089844-2.8828 0.35547-5.8945 0.89062-8.9766 0.13281-0.84375 0.90625-1.3945 1.75-1.2617 0.82031 0.13281 1.3945 0.92969 1.2656 1.75-0.51172 2.8828-0.80078 5.8945-0.86328 8.8203 0.86328 0.066406 1.707 0.13281 2.5078 0.17969 0.19922 0.19922 0.42188 0.50781 0.55469 0.6875 2.4609 3.1445 5.2773 5.8516 8.4453 7.8242 0.15625-2.0625 0.39844-4.168 0.75391-6.2969 0.13281-0.84375 0.90625-1.3945 1.75-1.2617 0.84375 0.13281 1.3984 0.92969 1.2656 1.75-0.44141 2.3711-0.6875 4.9414-0.82031 7.3594 1.2422 0.53125 2.5078 0.97656 3.8359 1.2852 0.046874-3.0781 0.33203-6.3398 0.88672-9.6641 0.13281-0.82031 0.92969-1.3945 1.75-1.2422 0.84375 0.13281 1.3945 0.91016 1.2656 1.75-0.53125 3.1719-0.84375 6.4727-0.88672 9.6641 0.97656 0.10938 1.9492 0.13281 2.9727 0.10938 3.9453-0.10938 7.9609-1.8164 8.8906-6.0273 0.71094-3.125-0.77344-6.5859-3.6094-8.1133-0.62109-0.33203-1.2852-0.57422-1.9766-0.6875 0.33203-0.10937 0.64453-0.19922 0.95312-0.30859-2.793-4.5-5.1875-10.02-6.8047-16.184-0.22266-0.82031 0.26562-1.6406 1.0859-1.8594 0.82031-0.22266 1.6602 0.26562 1.8633 1.0859 1.3711 5.4102 3.7266 11.195 6.6719 15.918 1.7695-0.6875 3.5234-1.4648 5.2539-2.2812-1.1523-3.2578-2.7031-6.6484-4.6094-10.02-0.42188-0.73047-0.17969-1.6875 0.57422-2.1055 0.73047-0.42188 1.6602-0.15625 2.0859 0.57422 1.9297 3.4141 3.4805 6.8516 4.6562 10.176 1.8164-0.92969 3.5898-1.9492 5.3164-2.9492-1.1953-4.3008-3.1055-8.9102-5.7188-13.52-0.42188-0.73047-0.17969-1.6875 0.57422-2.1055 0.73047-0.39844 1.6602-0.15625 2.0859 0.57422 2.5508 4.5234 4.4531 9.0898 5.6953 13.434 2.8594-1.8867 4.6797-4.7656 4.7656-8.2695 0.066406-2.3945-0.73047-4.7852-2.0859-6.7617-3.3906-5.0117-9.6641-6.8516-14.695-3.2148 1.1953 2.2383 2.3242 4.6328 3.3047 7.1602 0.30859 0.77344-0.066406 1.6602-0.86328 1.9727-0.77344 0.3125-1.6602-0.089844-1.9727-0.86328-0.82031-2.1719-1.8633-4.3906-2.9297-6.4297zm-183.8-229.23c8.7344-0.97656 22.457-4.3008 30.656 0.42187 9.2891 5.3672 10.863 14.055 7.8711 20.617l4.168 2.3945c0.71094 0.42188 0.95312 1.3516 0.55469 2.0625-0.42188 0.71094-1.3281 0.95312-2.0625 0.55469l-4.168-2.418c-4.1875 5.875-12.504 8.8438-21.77 3.4805-8.2031-4.7227-12.191-18.266-15.715-26.336-0.17969-0.37891 0.042969-0.73047 0.46484-0.77734zm20.438-57.434c4.3672-2.1289 9.7539-3.082 16.07-2.793 0.97656 0.046875 1.4844 0.089844 1.75 0.35547 0.28906 0.26562 0.33203 0.77734 0.37891 1.7734 0.28906 6.2969-0.66406 11.703-2.8164 16.07-1.3086-0.91016-2.7461-1.6641-4.2344-2.2383 0.33203-1.6406 0.42188-3.3477 0.35547-5.0117-0.066406-1.1953-0.3125-2.1953-1.1953-3.082-0.86328-0.88672-1.8828-1.1289-3.0586-1.1758-1.6836-0.089843-3.3906 0.023438-5.0312 0.35547-0.55859-1.5039-1.332-2.9258-2.2188-4.2539zm8.4883 8.2891c0.10938 2.3945-0.17969 4.8555-1.1953 7.0039 2.3477 0.26563 4.5898 1.3281 6.5391 2.6836 0.93359 0.64453 0.99609 0.95312 0.46484 1.9297-3.3477 5.9414-8.8672 8.3359-15.34 6.4492l-14.52 14.5c-2.5273 2.5469-6.8516 2.3945-9.5781-0.3125-2.7266-2.75-2.8828-7.0469-0.33203-9.5977l14.52-14.52c-1.8828-6.4492 0.51172-11.992 6.4492-15.316 0.97656-0.55469 1.2852-0.48438 1.9062 0.44531 1.3516 1.9727 2.418 4.1875 2.6836 6.5391 2.1484-1.0195 4.6094-1.3086 7.0039-1.1953 1.1094 0.039063 1.3555 0.28125 1.3984 1.3906zm24.051 10.441c1.6641-3.1914 4.6562-5.9414 8.8906-8.1367 0.55469-0.28906 0.86328-0.42188 1.1094-0.35547 0.24219 0.066406 0.42187 0.33203 0.75391 0.86328 2.5703 4.0117 3.7891 7.8906 3.6367 11.484 3.4141-1.0859 7.4688-0.91016 12.016 0.53125 0.62109 0.17578 0.92969 0.3125 1.043 0.51172 0.13281 0.22266 0.066406 0.55469-0.066406 1.1523-1.0195 4.6797-2.9023 8.2695-5.5625 10.684 3.1914 1.6641 5.9414 4.6562 8.1367 8.8906 0.28906 0.55469 0.44141 0.86328 0.375 1.1094-0.066407 0.22266-0.33203 0.42187-0.86328 0.75391-4.0352 2.5703-7.8906 3.793-11.484 3.6367 1.0859 3.4141 0.91016 7.4727-0.53125 12.016-0.19922 0.62109-0.30859 0.90625-0.53125 1.043-0.19922 0.13281-0.53125 0.066406-1.1523-0.066406-4.6562-1.0195-8.2461-2.9023-10.684-5.5625-1.6406 3.1914-4.6328 5.9414-8.8672 8.1367-0.55469 0.28906-0.86328 0.44141-1.1094 0.37891-0.24219-0.066406-0.42187-0.33203-0.77734-0.86328-2.5508-4.0352-3.7695-7.8945-3.6133-11.48-3.4141 1.0859-7.4922 0.90625-12.035-0.53125-0.59766-0.19922-0.91016-0.3125-1.0195-0.53125-0.13281-0.19922-0.066406-0.53125 0.066406-1.1523 1.0195-4.6523 2.9023-8.2461 5.543-10.684-3.1914-1.6406-5.918-4.6328-8.1367-8.8672-0.28906-0.57422-0.42188-0.86328-0.35547-1.1094 0.066406-0.24219 0.33203-0.42188 0.86328-0.77344 4.0117-2.5703 7.8906-3.7891 11.484-3.6133-1.0859-3.4375-0.91016-7.4922 0.53125-12.035 0.19922-0.59766 0.3125-0.91016 0.51172-1.0195 0.22266-0.13281 0.55469-0.066407 1.1758 0.066406 4.6484 1 8.2383 2.8867 10.652 5.5234zm-0.99609 32.496c7.293 1.9492 14.785-2.3945 16.758-9.6875 1.9492-7.293-2.3945-14.785-9.6875-16.734-7.2695-1.9492-14.785 2.3711-16.734 9.6641-1.9531 7.293 2.3711 14.785 9.6641 16.758zm6.2969-23.52c5.6953 1.5312 9.0898 7.3828 7.5586 13.059-1.5312 5.6953-7.3828 9.0664-13.078 7.5586-5.6758-1.5273-9.0664-7.3828-7.5352-13.078 1.5273-5.6758 7.3789-9.0664 13.055-7.5391zm-42.387 37.688 2.2383 1.3086-0.82031-3.0586c-0.22266-0.80078 0.26562-1.6172 1.0625-1.8398 0.79688-0.19922 1.6172 0.26953 1.8398 1.0664l1.5938 5.9414 4.8789 2.8164-0.82031-3.0391c-0.22266-0.79688 0.26562-1.6172 1.0625-1.8398s1.6172 0.26562 1.8398 1.0625l1.5977 5.9414 5.4961 3.1914c-0.19922 0.44141-0.42188 0.91016-0.66406 1.3281-0.26563 0.44141-0.53125 0.86328-0.84375 1.2656l-9.7734-5.6523-5.9414 1.5977c-0.79688 0.22266-1.6406-0.26953-1.8398-1.0664-0.22266-0.79687 0.26562-1.6172 1.0625-1.8398l3.0352-0.82031-4.2578-2.4609-2.2617-1.2852c-0.71094-0.42187-0.95312-1.3516-0.53125-2.0625 0.41016-0.71484 1.3398-0.95703 2.0469-0.55469zm-142.08-144.37c5.6523 15.074 19.223 25.004 30.945 24.781-0.77734-2.6133-1.0898-5.3633-1.043-8.1562l-3.7266-1.2188c-1.9297-0.64453-0.86328-3.5039 0.95312-2.9023l2.9492 0.95312c0.22266-2.1055 0.59766-4.2109 1.1055-6.2734l-9.5742-2.793c-1.9062-0.55469-1.1055-3.5039 0.86328-2.9258l9.4219 2.75c-0.71094-2.6602-1.5508-5.2773-2.4609-7.8672l-15.113-5.2344c-1.9297-0.66406-0.91016-3.5469 0.99609-2.8828l12.707 4.3906c-0.95312-2.4375-2.0195-4.8555-3.125-7.2266l-8.8203-3.6562c-1.8867-0.77344-0.71094-3.5898 1.1758-2.8164l5.5898 2.3047c-1.8164-3.5234-3.7891-6.9844-5.9219-10.375-1.6836-1.5508 1.1328-3.9023 2.3242-1.9492 2.2656 3.6133 4.3906 7.293 6.3203 11.062l0.84375-2.1289c0.75391-1.8828 3.5898-0.75391 2.8359 1.1289l-1.8594 4.6797c1.0391 2.1484 1.9961 4.3203 2.9023 6.4961l1.8867-4.7422c0.75391-1.8828 3.5898-0.75391 2.8359 1.1328l-3.1055 7.8047c0.62109 1.707 1.1953 3.4141 1.7539 5.1211 0.19922-0.53125 0.44141-1.0625 0.73047-1.5742 0.84375-1.5078 2.1055-2.8828 3.9688-2.9453 0.39844-0.019531 0.75391 0.019531 1.0898 0.10938 0.75391-1.8398 1.6836-3.6133 2.7461-5.2773 0.17969-0.28906 0.39844-0.55469 0.61719-0.79687 1.2852-1.4219 3.0391-1.9492 4.5234-1.5312-0.089843-1.1953-0.22266-2.3711-0.42187-3.5469-0.22266-1.1523-1.1953-2.4375-2.1953-1.0859-0.97656 1.3281-1.2617 1.0391-1.4648-0.3125-0.50781-3.3242-1.5078-6.0742-2.9922-8.2461-0.66406-0.99609-1.9492-1.7305-2.4141-0.10938-0.28516 1.0859-0.64453 1.3086-1.0195 0.62109-1.7969-3.2344-4.0312-6.8516-6.8281-9.332-0.97656-0.84375-1.7305-1.3516-2.4141-0.023438-0.64453 1.2617-0.77344 1.1758-1.4648 0.35547-3.0625-3.6211-7.0117-6.5469-11.754-8.832-2.4609-1.1758-2.5508-0.88672-3.6797 1.6836-2.6133 5.918-3.9258 9.9766-3.9453 12.191 0 0.86328 0.3125 2.0625-0.93359 1.6641-0.93359-0.3125-2.0859-1.043-2.6133 0-1.6172 3.2383-1.9062 7.3164-0.80078 10.773 0.33203 1.0195 0.42188 1.4414-0.75391 1.1758-1.4844-0.35547-2.2383-0.089844-2.2812 0.77344-0.19922 4.3242 1.1758 8.5352 3.3672 12.215 0.42187 0.71094 1.3281 1.5742-0.3125 1.043-1.7695-0.55469-3.2305-0.62109-2.4141 1.5508zm81.91 24.211c-12.344 13.188-31.387 16.625-41.719 8.9531-1.7539 3.7266-3.2617 7.625-4.5234 11.684-0.66406 2.1719-3.6133 1.5742-2.8828-0.79688 1.7305-5.7188 2.7461-8.6016 5.0117-13.035-5.3867-5.8281-7.0273-15.852-1.375-30.414 0.51172-1.3281 1.9062-4.168 3.125-1.707 0.88672 1.7734 1.3281 1.1758 1.7969-0.24219 0.82031-2.6172 1.9492-5.0312 3.3672-7.2695 0.62109-0.97656 2.0391-1.7969 2.4375-0.15625 0.39844 1.5742 0.75391 1.4414 1.4648 0.26953 1.7539-2.8828 3.7266-5.0312 5.9219-6.4727 0.99609-0.66406 2.4609-0.86328 2.2617 0.82031-0.13281 1.1094 0.10938 1.4414 0.71094 0.95312 2.9023-2.3086 6.3398-4.7891 9.8867-6.0078 1.2188-0.42188 2.1289-0.59766 2.2344 0.88672 0.10938 1.418 0.28906 1.375 1.2227 0.91016 4.2109-2.1719 8.9531-3.3672 14.211-3.6797 2.7461-0.15625 2.7266 0.15625 2.793 2.9727 0.15625 6.4727-0.19922 10.73-1.0195 12.77-0.33203 0.80078-1.0859 1.7734 0.22266 1.8867 0.97656 0.089843 2.3047-0.17578 2.4141 0.99609 0.26953 3.6133-1.0391 7.5156-3.3906 10.266-0.6875 0.82031-0.92969 1.1758 0.26562 1.375 1.5078 0.24219 2.1055 0.77344 1.8164 1.5977-1.4844 4.0781-4.3477 7.4453-7.8047 9.9961-0.66406 0.50781-1.8164 0.92969-0.10938 1.0859 1.8594 0.14062 3.2344 0.64844 1.6602 2.3594zm-4.6328-33.34c-3.1484 2.3945-6.3164 4.7227-9.3125 7.25h6.0547c0.84375 0 1.5273 0.6875 1.5273 1.5273 0 0.84375-0.6875 1.5273-1.5273 1.5273h-9.5312c-1.9492 1.7734-3.8555 3.5898-5.6758 5.4766l13.434 0.79688c0.84375 0.042969 1.4844 0.77734 1.4375 1.6172-0.042969 0.84375-0.77344 1.4844-1.6172 1.4414l-15.961-0.95312c-1.8594 2.0625-3.6367 4.168-5.2969 6.3398l9.7734 1.0625c0.82031 0.089844 1.4414 0.84375 1.3516 1.6836-0.089844 0.82031-0.86328 1.4414-1.6836 1.3516l-11.566-1.2578c-1.418 1.9727-2.7461 4.0117-4.0117 6.0977l7.3828 0.53125c0.83984 0.066407 1.4609 0.80078 1.3945 1.6406-0.046875 0.84375-0.80078 1.4844-1.6406 1.418l-8.8477-0.66406c-0.48828 0.88672-0.97656 1.7734-1.418 2.6602l-0.046875-0.046875c-0.84375-0.66406-1.5742-1.3945-2.1953-2.1953 0.26953-0.48828 0.55469-0.99609 0.84375-1.5508l-0.3125-8.0234c-0.023437-0.84375 0.64453-1.5508 1.4844-1.5977 0.84375-0.019532 1.5547 0.64453 1.5742 1.4844l0.13281 3.2773c1.0391-1.6602 2.1289-3.2773 3.2812-4.8555l-0.089843-11.684c0-0.84375 0.66406-1.5312 1.5078-1.5312 0.84375-0.019532 1.5547 0.66406 1.5547 1.5078l0.046875 7.6914c1.6836-2.1055 3.4375-4.1445 5.2539-6.1406l0.10938-8.4023c0.019531-0.84375 0.71094-1.5273 1.5508-1.5078 0.84375 0 1.5312 0.71094 1.5078 1.5508l-0.066407 5.1211c1.6875-1.6875 3.3945-3.3242 5.1641-4.9219l0.066406-5.0312c0-0.84375 0.71094-1.5273 1.5508-1.5078 0.84375 0 1.5078 0.71094 1.5078 1.5508l-0.046875 2.2812c3.082-2.5938 6.2969-5.0312 9.5547-7.4453 1.8438-1.3398 3.3086 1.2734 1.8008 2.4297zm341.92-143.73c-1.5977 0.26562-3.3242 0.22266-4.9414 0.19922-2.0625-0.019531-4.1445-0.066406-6.1836 0.066406-5.5859 0.30859-10.797 1.8633-12.746 7.6484-2.0156 6.0312-0.33203 11.504 5.9648 13.121l-1.8164 2.1289c-0.6875 0.82031-1.2188 1.7305-1.6172 2.6836-2.2812-4.0586-4.9648-7.9609-7.9805-11.707 0.22266-4.3906 2.9492-9.1094 5.918-13.012l4.5664-0.46484 1.4844-0.15625c0.37891-0.042969 0.75391-0.22266 1.0195-0.55469 0.51172-0.64453 0.42188-1.5742-0.22266-2.1055-0.3125-0.26562-0.71094-0.35547-1.0859-0.33203l-1.5078 0.15625-1.5977 0.15625c0.35547-0.39844 0.6875-0.77734 1.0195-1.1328l0.99609-1.1289c0.19922-0.19922 0.3125-0.44141 0.37891-0.73047 0.13281-0.82031-0.39844-1.5977-1.2188-1.7539-0.53125-0.089844-1.0391 0.10937-1.375 0.48828l-0.99609 1.1094c-0.37891 0.39844-0.73047 0.82031-1.1094 1.2422l-0.15234-1.5742-0.15625-1.4844c-0.042968-0.37891-0.22266-0.75391-0.53125-1.0195-0.64453-0.51172-1.5977-0.42188-2.1289 0.22266-0.24219 0.33203-0.35547 0.71094-0.30859 1.1094h-0.023437l0.15625 1.4844 0.46484 4.5664c-1.9492 2.5703-3.7891 5.4336-5.0312 8.4023-0.44531-2.1719-0.86328-4.3203-1.2656-6.4961-0.22266-1.2656-0.44141-2.5273-0.66406-3.8125l3.4805-4.9883c1.1328-1.6406-1.3516-3.3242-2.4609-1.707l-1.6836 2.4141c-0.13281-0.97656-0.26562-1.9727-0.37891-2.9492-0.24219-1.9297-3.2383-1.5977-2.9727 0.37891 0.13281 1.1094 0.26562 2.1953 0.42188 3.2812l-2.6367-1.8398c-1.6406-1.1328-3.3242 1.3516-1.7305 2.4609l5.0117 3.4805c0.19922 1.2852 0.44141 2.5508 0.66406 3.8125 0.62109 3.3477 1.2852 6.6719 1.9727 9.9766-1.75-0.82031-3.6562-1.3945-5.6328-1.8164l-5.5625-7.9805 0.99609-5.9844c0.3125-1.9297-2.6367-2.4609-2.9688-0.48828l-0.48828 2.9727-1.7734-2.5508c-1.1523-1.6406-3.5938 0.10938-2.4609 1.7305l1.8633 2.6602-3.125-0.51172c-1.9727-0.33203-2.4141 2.6367-0.48828 2.9492l6.0078 0.99609 3.9258 5.5859c-1.2656-0.13281-2.5039-0.19922-3.7461-0.24219l-4.3672-4.2109c-1.4414-1.3984-3.5039 0.77344-2.0859 2.1484l2.1953 2.1055c-0.26562 0-3.125 0.13281-3.125 0.15625-1.9492 0.10938-1.8164 3.1055 0.15625 2.9922 0 0 2.8164-0.15625 3.082-0.15625l-2.1953 2.2617c-1.3516 1.418 0.77344 3.5234 2.1484 2.082l4.2344-4.3672c5.1445 0.15625 10.707 1.043 14.52 3.7891 7.8047 9.5781 13.367 20.195 15.051 31.832-1.6602-1.5508-3.7695-2.6602-6.1602-3.082l-3.7695-0.66406c4.9219-6.4062 2.1055-12.656-4.2109-16.559-11.129-6.8281-21.324 7.4023-27.688 11.062-1.418 0.79688-1.5078 1.3945-0.46484 2.6367 4.7227 5.6328 9.3984 22.5 22.188 19.887 7.2695-1.4648 12.082-6.3867 9.6641-14.074l3.7695 0.66406c3.5469 0.64453 6.2734 3.2812 7.2031 6.5625 0.023437 1.6172-0.023438 3.2578-0.13281 4.9219-2.3281 6.207-3.2148 11.836-3.5039 18.398-0.066407 0.88672 0.62109 1.6406 1.5078 1.6406 0.84375 0 1.4648-0.6875 1.5078-1.5078 0.13281-3.2148 0.37891-6.2305 0.99609-9.4219 1.4844-3.0352 4.6328-5.1445 8.2227-5.1445h3.8359c-3.7266 7.1406 0.13281 12.836 7.0273 15.562 12.148 4.8086 19.707-10.996 25.359-15.672 1.2422-1.043 1.2422-1.6641 0-2.7031-5.6328-4.6992-13.168-20.508-25.316-15.738-6.8945 2.7266-10.773 8.4023-7.0703 15.539h-3.8125c-2.4375 0-4.6992 0.73047-6.6055 1.9492 3.7031-11.148 11.016-20.617 20.371-28.707 4.2344-2.0391 9.8633-1.9297 14.965-1.1953l3.3906 5.0547c1.1094 1.6172 3.5938-0.019531 2.4844-1.6836l-1.7539-2.6172c0.99609 0.22266 1.9922 0.46484 2.9922 0.71094 0.10938 0.019531 0.22266 0.019531 0.33203 0.019531 1.7734 0 2.0625-2.5508 0.35547-2.9453 0-0.023438-2.7695-0.64453-3.0352-0.71094l2.5273-1.6836c1.6172-1.1094-0.046875-3.5938-1.6836-2.4844l-5.0547 3.3906c0 0.023438-3.3711-0.39844-3.7031-0.42188l4.8125-4.8086 6.0977 0.066406c1.9727 0.019531 2.0195-2.9727 0.046875-2.9922l-3.1719-0.042968 2.2812-2.3086c1.3945-1.3945-0.71094-3.5039-2.1055-2.1055l-2.1953 2.1719 0.023437-2.9922c0.023437-1.9727-2.9688-1.9961-2.9922-0.019531l-0.066407 6.0508-6.8711 6.8945c-2.0195 0.066406-3.9883 0.3125-5.8516 0.82031 1.7305-4.3438 3.4375-8.7109 4.9883-13.121l5.543-2.5508c1.7969-0.84375 0.53125-3.5703-1.2656-2.7266l-2.9258 1.3516c0.35547-1.0625 0.66406-2.1055 0.99609-3.1719 0.57422-1.8828-2.2812-2.75-2.8594-0.88672-0.3125 0.95312-0.59766 1.8867-0.88672 2.8164l-1.2422-2.6602c-0.84375-1.7969-3.5469-0.51172-2.7266 1.2656l2.5508 5.5195c-1.9062 5.3867-4.1016 10.684-6.2305 15.98-7.0938 6.1641-13.035 13.145-17.223 20.992-0.39844-7.7578-2.4609-15.098-5.7422-22.035-0.066407-1.7734 0.51172-3.5469 1.707-4.9648l1.7969-2.1484c2.6602 5.8945 8.4023 6.6055 13.945 3.6133 2.0625-1.1328 3.6133-2.7031 4.543-4.8789 1.1953-2.7695 1.1523-6.0273 0.82031-9-0.24219-2.0391-0.64453-4.0781-1.0195-6.0977-0.3125-1.5977-0.64453-3.3047-0.64453-4.9219-0.007813-1.5312-0.51562-1.9531-2.0234-1.6875zm-0.53125 59.918h1.9297l4.5469-9.5742c0.35547-0.73047 1.2656-1.0625 1.9922-0.71094 0.75391 0.35547 1.0625 1.2656 0.71094 1.9922l-3.9258 8.2891h3.9883l3.5898-6.1836c0.39844-0.71094 1.3281-0.95312 2.0391-0.55469 0.73047 0.42187 0.97656 1.3516 0.55469 2.0625l-2.7031 4.6797 7.7383 0.023437c0.82031 0 1.4844 0.66406 1.4844 1.5078 0 0.82031-0.66406 1.4844-1.5078 1.4844h-7.7344l2.7031 4.6992c0.42187 0.71094 0.17578 1.6406-0.55469 2.0391-0.71094 0.42188-1.6172 0.15234-2.0391-0.55469l-3.5703-6.1836-3.9883-0.023438 3.9023 8.3125c0.35547 0.73047 0.046874 1.6406-0.71094 1.9961-0.75391 0.35547-1.6406 0.019532-1.9961-0.73047l-4.5234-9.5742h-1.9492c0.37891-1.0234 0.37891-1.9766 0.023438-2.9961zm-29.527-16.668-1.9062-0.33203-2.793-10.219c-0.22266-0.79688-1.043-1.2656-1.8398-1.043s-1.2656 1.043-1.0625 1.8398l2.4141 8.8438-3.9258-0.6875-2.4375-6.7383c-0.28906-0.77734-1.1523-1.1758-1.9297-0.88672-0.77344 0.26953-1.1758 1.1523-0.88672 1.9297l1.8398 5.0742-7.625-1.3516c-0.80078-0.13281-1.5977 0.39844-1.7305 1.2188-0.15625 0.82031 0.39844 1.5977 1.2188 1.75l7.6055 1.3516-3.4805 4.1445c-0.53125 0.62109-0.44141 1.5742 0.17969 2.1055 0.64453 0.53125 1.5977 0.44141 2.1289-0.17969l4.5898-5.4766 3.9453 0.6875-5.3203 7.4922c-0.46484 0.66406-0.3125 1.6172 0.35547 2.082 0.6875 0.48828 1.6172 0.3125 2.1055-0.35547l6.1172-8.6445 1.9297 0.35547c-0.17969-1.0547-0.023437-2.0078 0.50781-2.9609zm17.445-23.852 8.4023 2.2148c0.79688 0.19922 1.6406-0.28906 1.8398-1.0859 0.19922-0.77734-0.28906-1.6172-1.0625-1.8164l-7.0508-1.8633 1.7969-2.1484 5.7656 1.0195c0.82031 0.15234 1.5977-0.39844 1.7305-1.2227 0.15625-0.79688-0.39844-1.5938-1.1953-1.7266l-4.0586-0.73047 3.9023-4.6094c0.53125-0.64062 0.44141-1.5977-0.19922-2.1289-0.62109-0.53125-1.5742-0.44141-2.1055 0.17578l-3.9023 4.6328-1.3945-3.8594c-0.28906-0.77734-1.1523-1.1758-1.9297-0.88672-0.77734 0.26562-1.1758 1.1328-0.88672 1.9062l1.9961 5.4961-1.8164 2.1484-3.0352-6.6289c-0.33203-0.73047-1.2383-1.0625-1.9922-0.73047-0.73047 0.35547-1.0625 1.2422-0.73047 1.9961l3.6367 7.9141-0.84375 0.99609c1.043 0.33203 1.7734 0.95312 2.3047 1.9297zm-483.41 14.871 3.9883-2.8398 4.0117 2.8398v9.1992h-8.0039zm-42.316 28.262h22.566v-3.8789c-5.8945-1.332-8.3125-4.8555-8.6875-13.922-0.35547-8.5781 3.5234-19.328 9.8633-27.223h21.059v11.281l-4.8555 3.4375c-0.44141 0.30859-0.64453 0.77344-0.62109 1.2852v11.305c0 0.91016 0.73047 1.6406 1.6406 1.6406h10.707c0.88672 0 1.6406-0.73047 1.6406-1.6406v-11.238c0.042968-0.53125-0.17969-1.0195-0.64453-1.3516l-4.832-3.4375v-11.281h16.16c14.809-4.2344 31.102 14.676 7.4688 37.352-1.3945 2.0156-3.4141 3.1445-6.25 3.7891v3.8789h21.945c0.84375 0 1.5078 0.6875 1.4844 1.5273-0.023438 5.2109-4.2773 9.4648-9.4883 9.4648h-71.18c-5.2109 0-9.4648-4.2578-9.4883-9.4648 0.003906-0.83594 0.64844-1.5234 1.5117-1.5234zm15.695-37.883c-0.97656-0.28906-1.8867-0.73047-2.6172-1.3945-0.86328-0.80078-1.5273-1.8867-2.1055-2.9023-0.92969-1.5742-1.7734-3.1719-2.7695-4.7227-0.15625-0.66406-0.75391-1.1523-1.4648-1.1523h-6.7188c-1.375 0-1.9727 1.5742-1.1523 2.5273 4.1875 6.4766 1.6836 15.852 5.3438 22.742 1.5508 2.9258 3.9219 4.7891 6.7188 5.9414-0.023437-0.26562-0.046875-0.55469-0.046875-0.82031-0.28906-6.6328 1.6641-13.836 4.8125-20.219zm26.688-19.953v2.0391c-5.918 0.17969-11.395 3.2148-15.914 7.7344h34.867c-4.5234-4.5195-9.9961-7.5586-15.914-7.7344v-2.0391c2.0859-0.64453 3.6133-2.5938 3.6133-4.8984 0-2.8359-2.3047-5.1445-5.1445-5.1445-2.8398 0-5.1211 2.3047-5.1211 5.1445 0 2.3047 1.5078 4.2578 3.6133 4.8984zm1.5078-7.0273c1.1758 0 2.1289 0.95312 2.1289 2.1289s-0.95312 2.1289-2.1289 2.1289c-1.1758 0-2.1289-0.95313-2.1289-2.1289s0.95312-2.1289 2.1289-2.1289zm22.102 22.457c2.3711-0.44141 4.8984-0.17969 7.4023 1.0195 6.3164 3.0156 8.0938 9.8633 6.3398 16.293-1.0625 3.9258-3.2578 7.5352-6.1172 10.883 0.15625-1.0859 0.24219-2.2812 0.28516-3.5898 0.33594-7.668-2.7227-17.07-7.9102-24.605zm355.86-8.0703-4.4766 57.855c-0.10938 1.5312-1.0859 3.2578-2.8164 3.2578h-41.055c-1.7305 0-2.6836-1.7305-2.793-3.2578l-4.6797-60.164c-0.042969-0.6875 0.37891-1.3086 1.043-1.5273 3.5703-1.5273 7.1367-2.5273 10.797-2.6836v5.7656c-2.1055 2.1055-4.2344 4.2109-6.3398 6.3398-0.97656 0.95312-1.4648 2.1719-1.4648 3.5234v9.6875c0 3.6797 2.9922 6.6719 6.6719 6.6719h11.262c3.6797 0 6.6719-2.9922 6.6719-6.6719v-9.6875c0-1.3555-0.48828-2.5703-1.4648-3.5234-2.1055-2.1289-4.2109-4.2344-6.3398-6.3398v-4.2344c5.0312 1.9492 9.1328 5.6328 14.098 7.6055 2.7695 1.1094 5.4336 1.375 8.3555 0.77734 3.5469-0.73047 7.0273-2.6406 10.086-4.7461 1.0508-0.86719 2.625 0.023438 2.4453 1.3516zm-40.984 0.48828-7.2031 7.2031c-0.42188 0.42188-0.59766 0.88672-0.59766 1.4219v9.6875c0 2.0195 1.6602 3.6797 3.6797 3.6797h11.262c2.0195 0 3.6797-1.6602 3.6797-3.6797v-9.6875c0-0.53125-0.17969-0.99609-0.59766-1.4219-2.3945-2.3945-4.8086-4.8125-7.2031-7.2031v-20.527h42.539l-6.0508 78.117c-0.24219 3.1484-2.4609 6.0273-5.8086 6.0273h-41.055c-3.3242 0-5.5625-2.8828-5.8086-6.0273l-6.0312-78.117h19.195l-0.003906 20.527zm-7.3594 66.637c-4.832 0-8.4258-3.9883-8.8008-8.8008l-6.1406-79.516c-0.089844-0.97656 0.37891-1.8633 1.4648-1.8633h68.031c0.93359 0 1.6172 0.84375 1.4648 1.75l-0.53125 6.9375h5.2109c7.9141 0 14.387 6.4727 14.387 14.387v21.324c0 7.4688-4.457 13.301-11.02 16.402-2.4141 1.1328-7.4023 3.5039-13.078 6.1641l-1.1328 14.406c-0.375 4.8125-3.9453 8.8008-8.8008 8.8008zm55.262-78.496-0.24219 3.0156h5.6758c4.5898 0 8.3789 3.7695 8.3789 8.3789v21.324c0 5.0977-3.1055 8.8438-7.582 10.973-3.3242 1.5742-6.6484 3.1484-9.9766 4.7227l-0.26562 3.4375c3.8359-1.8164 7.6719-3.6367 11.527-5.4531 5.543-2.6133 9.2891-7.4023 9.2891-13.676v-21.324c0-6.25-5.1211-11.395-11.371-11.395zm-0.46484 6.0078-3.0156 38.949 8.4219-3.9922c3.4141-1.5977 5.875-4.3203 5.875-8.2461v-21.324c0-2.9492-2.4375-5.3867-5.3867-5.3867zm-51.695 41.164 5.1211 5.7188c0.77344 0.86328 2.1055 0.95312 2.9688 0.17969l5.7422-5.1211c0.86328-0.77734 0.95312-2.1289 0.17969-2.9922l-5.1211-5.7188c-0.77344-0.86328-2.1289-0.95312-2.9922-0.17578l-5.7188 5.1211c-0.89062 0.77344-0.95703 2.125-0.17969 2.9883zm2.8359-1.3516 3.9258 4.4102 4.4102-3.9258-3.9453-4.4102zm17.469 16.602 9.6211 2.5938c1.4648 0.37891 2.9727-0.48828 3.3477-1.9492l2.5938-9.6211c0.37891-1.4648-0.48828-2.9727-1.9492-3.3477l-9.6211-2.5938c-1.4648-0.37891-2.9688 0.48828-3.3477 1.9297l-2.5938 9.6445c-0.37891 1.4609 0.48828 2.9688 1.9492 3.3438zm1.0195-2.8359 9.1328 2.4609 2.4375-9.1328-9.1328-2.4375zm3.1055-24.605 7.4258 1.9961c1.1094 0.28516 2.2812-0.37891 2.5703-1.4844l1.9961-7.4258c0.3125-1.1328-0.35547-2.2812-1.4844-2.5938l-7.4258-1.9922c-1.1328-0.28906-2.2812 0.37891-2.5938 1.4844l-1.9727 7.4492c-0.3125 1.1016 0.35156 2.2773 1.4844 2.5664zm1.6367-2.6602 5.6953 1.5273 1.5273-5.7188-5.6953-1.5273zm165.84 148.08c-0.80078 5.7656-5.7852 10.242-11.77 10.242h-9.4883c-0.28906 3.6992-3.4375 6.6484-7.2031 6.6484h-33.051c-3.7695 0-6.8945-2.9492-7.2031-6.6484h-9.4414c-5.8281 0-10.707-4.2578-11.703-9.8203-0.17969-1.0625-0.26563-2.4375 1.3281-2.4375h17.469c-2.1953-2.0391-3.5898-4.9648-3.5898-8.1797l-0.003907-33.207c0-1.8633 1.5508-3.4141 3.4375-3.4141h52.492c1.8633 0 3.4141 1.5508 3.4141 3.4141v3.9453h5.3633c5.5195 0 10.02 4.5 10.02 10.02v9.5312c0 5.4961-4.5 10.02-10.02 10.02h-5.3633c-0.089843 3.1055-1.4648 5.8984-3.5898 7.8711h17.469c1.2773 0 1.5664 1.0156 1.4336 2.0156zm-56.238-25.648 3.9883-2.8359 3.9883 2.8359v9.1992h-7.9805zm2.4844-18.156v12.656l-4.8555 3.457c-0.44141 0.30859-0.66406 0.77344-0.64453 1.2852v11.305c0 0.90625 0.75391 1.6406 1.6641 1.6406h10.684c0.91016 0 1.6641-0.73047 1.6641-1.6406v-11.234c0.019531-0.53125-0.17969-1.0195-0.64453-1.3516l-4.8555-3.457v-12.66h32.012c0.22266 0 0.39844 0.17578 0.39844 0.39844v33.207c0 4.5-3.6797 8.1797-8.1797 8.1797h-36.953c-4.5 0-8.1797-3.6797-8.1797-8.1797v-33.203c0-0.22266 0.19922-0.39844 0.42188-0.39844h17.469zm-14.898 10.531v23.074c0 2.8359 2.3516 5.1875 5.1875 5.1875h36.953c2.8359 0 5.1875-2.3516 5.1875-5.1875v-23.031c0-0.88672-0.62109-1.5977-1.5078-1.5977h-24.895v2.1484l3.5898 2.5273c1.2656 0.90625 1.9492 2.3516 1.8828 3.8984v11.148c0 2.5508-2.0859 4.6328-4.6562 4.6328h-10.684c-2.5703 0-4.6562-2.0859-4.6562-4.6328l0.003907-11.25c-0.042969-1.5078 0.66406-2.9023 1.8867-3.7891l3.5898-2.5273v-2.1484h-10.375c-0.83984-0.003906-1.5078 0.70312-1.5078 1.5469zm53.336-3.1914v3.0156h5.3633c2.2188 0 4.0117 1.7969 4.0117 4.0117v9.5312c0 2.1953-1.7969 4.0117-4.0117 4.0117h-5.3633v2.9922h5.3633c3.8555 0 7.0273-3.1484 7.0273-7.0039v-9.5312c0-3.8555-3.1719-7.0273-7.0273-7.0273zm0 6.0078v11.551h5.3633c0.55469 0 1.0195-0.44141 1.0195-0.99609v-9.5312c0-0.55469-0.46484-1.0195-1.0195-1.0195zm-20.281-23.098c1.9297-3.082 1.9062-5.4531 0.55469-8.625-1.0391-2.5039-1.4414-3.7891 0.13281-6.3164 1.1055-1.8164-1.6406-3.3711-2.6602-1.5977-1.9062 3.0586-1.8867 5.4297-0.53125 8.625 1.043 2.4805 1.4414 3.7891-0.15625 6.293-1.0898 1.8203 1.6602 3.3945 2.6602 1.6211zm-8.4023 0c1.9062-3.082 1.8828-5.4531 0.55469-8.625-1.043-2.5039-1.4648-3.7891 0.13281-6.3164 1.0859-1.8164-1.6406-3.3711-2.6602-1.5977-1.9062 3.0586-1.8867 5.4297-0.55469 8.625 1.1328 2.6836 1.3945 3.7461-0.15625 6.3398-1.0391 1.75 1.6641 3.3477 2.6836 1.5742zm-8.4023 0c1.9062-3.082 1.8828-5.4531 0.55469-8.625-1.0625-2.5039-1.4648-3.7891 0.13281-6.3164 1.0859-1.8164-1.6406-3.3711-2.6602-1.5977-1.9062 3.0586-1.8867 5.4297-0.55469 8.625 1.043 2.4805 1.4648 3.7891-0.13281 6.293-1.0859 1.8203 1.6406 3.3945 2.6602 1.6211zm-352.09-52.969h-35.977c-0.64453 0-1.1758-0.51172-1.1758-1.1758v-5.918c-5.2539-9.2695-8.3789-20.859-8.3789-33.477 0-12.613 3.125-24.23 8.3789-33.473v-5.9414c0-0.64453 0.53125-1.1758 1.1758-1.1758h52.203c0.64453 0 1.1523 0.53125 1.1523 1.1758v5.9414c1.2852 2.2383 2.4141 4.5898 3.4375 7.0703-4.5664 2.4609-7.6914 7.2695-7.6914 12.789v9.6875h-0.57422c-1.8633-10.703-11.195-18.84-22.438-18.84-12.566 0-22.766 10.195-22.766 22.766 0 12.566 10.195 22.766 22.766 22.766 3.3047 0 6.4492-0.71094 9.2891-1.9727v13.5h-33.562v3.2812h33.562v0.42188c0 0.92969 0.19922 1.7969 0.59766 2.5742zm16.141-41.477h-6.2305c-0.53125-0.066407-1.043 0.15625-1.375 0.55469-1.9062 1.8828-3.7891 3.7891-5.6953 5.6953-0.3125 0.3125-0.44141 0.66406-0.44141 1.0625v31.59c0 1.5312 1.2656 2.793 2.793 2.793h24.914c1.5273 0 2.793-1.2656 2.793-2.793v-31.59c0-0.39844-0.13281-0.75391-0.44141-1.0625-1.9062-1.9062-3.8125-3.8125-5.6953-5.6953-0.33203-0.39844-0.84375-0.62109-1.375-0.55469h-6.25v-12.703c0-4.6797 3.8125-8.4883 8.4688-8.4883 4.6758 0 8.4883 3.8125 8.4883 8.4883v0.62109c-1.707 1.707-3.4375 3.4375-5.1445 5.1445-0.3125 0.3125-0.44141 0.64453-0.44141 1.0625v7.3359c0 1.5312 1.2656 2.793 2.793 2.793h8.5352c1.5273 0 2.793-1.2656 2.793-2.793v-7.3359c0-0.42188-0.13281-0.75391-0.44141-1.0625-1.707-1.707-3.4141-3.4141-5.0977-5.0977v-0.66406c0-6.3164-5.1641-11.48-11.48-11.48-6.2969 0-11.461 5.1641-11.461 11.48zm12.344 23.207v12.836c0 0.53125-0.44141 0.97656-0.99609 0.97656h-19.441c-0.53125 0-0.97656-0.44141-0.97656-0.97656v-12.723c0-1.5078 1.9062-1.7539 3.0156-1.8398 2.6367-0.22266 5.2109 0.75391 7.7148 1.4414 3.3047 0.91016 5.7656 1.043 8.2461-0.88672 0.97656-0.77734 2.4375-0.089844 2.4375 1.1719zm-18.418 1.3086v9.5078h15.406v-8.1992c-2.8398 1.1758-5.5859 0.77734-8.4688-0.019531-2.1289-0.57812-4.6562-1.5977-6.9375-1.2891zm4.168-16.203h6.8281c0.82031 0 1.5078-0.6875 1.5078-1.5078s-0.6875-1.5078-1.5078-1.5078h-6.8281c-0.84375 0-1.5078 0.6875-1.5078 1.5078s0.66406 1.5078 1.5078 1.5078zm9.4648-24.828c1.0625 4.2773 1.7305 8.8008 1.9727 13.5h-0.39844-3.1484v-9.6875c0-1.4844 0.59766-2.8359 1.5742-3.8125zm-33.586-2.3477c9.5781 0 17.559 6.8281 19.375 15.852-1.1953 0.066406-2.3516 0.62109-3.1484 1.5078l-4.5898 4.5898c0.86328-2.3047 0.95312-5.1211 0.22266-8.3125-0.19922-0.88672-0.24219-0.90625-1.1328-0.79688-3.7031 0.48828-7.25 1.8164-9.4648 4.9883-0.26562-0.59766-0.59766-1.1523-0.97656-1.6836-2.1289-3.082-5.7852-5.0078-10.773-5.6523-1.0195-0.13281-1.0859-0.089844-1.3086 0.90625-1.0859 4.9219-0.55469 9.0234 1.6172 12.059 1.9492 2.8398 5.2539 4.6797 9.6641 5.4766 1.1953 0.22266 1.3086 0.24219 2.5508 0.023438 3.1016-0.55469 5.5391-1.707 7.293-3.4141-0.046875 0.19922-0.046875 0.42188-0.046875 0.64453v11.039c-2.7695 1.4844-5.9414 2.3047-9.2891 2.3047-10.906 0-19.75-8.8438-19.75-19.75 0.007812-10.914 8.8516-19.781 19.758-19.781zm2.5273 25.777c2.1289-0.51172 4.1875-1.5078 5.4766-3.3242 1.2852-1.8398 1.5078-4.125 1.2656-6.2969-2.1484 0.51172-4.2109 1.5078-5.4961 3.3242-1.2891 1.8398-1.4883 4.1484-1.2461 6.2969zm-3.2578 0.046875c-2.7031-0.57422-5.3633-1.7734-6.9805-4.1016-1.6406-2.3047-1.8398-5.2109-1.4648-7.9609 2.7266 0.57422 5.3867 1.7734 7.0039 4.0781 1.6211 2.332 1.8203 5.2578 1.4414 7.9844zm-23.543-43.625v3.2578h48.547v-3.2578zm191.43 79.754c-1.2422-2.75-4.0117-4.6797-7.2266-4.6797-0.97656 0-1.8828 0.17578-2.7461 0.48828-0.93359-1.7305-2.3945-3.1484-4.1445-4.0352v-9.1797c4.3906-0.79688 7.668-2.6406 9.6445-5.4766 2.1484-3.0586 2.7031-7.1602 1.5977-12.062-0.22266-1.0195-0.26562-1.0391-1.3086-0.90625-4.9648 0.64453-8.6445 2.5703-10.75 5.6523-0.37891 0.53125-0.71094 1.0859-0.99609 1.6875-2.1953-3.1719-5.7422-4.5-9.4414-4.9883-0.91016-0.10938-0.95312-0.089843-1.1523 0.80078-0.95312 4.2773-0.48828 7.8672 1.3945 10.527 1.6602 2.3945 4.3906 3.9883 8.0234 4.7227v8.2891c-0.44141-0.066406-0.88672-0.089844-1.3516-0.089844-1.6406 0-3.1914 0.39844-4.543 1.1289-1.8633-5.7422-7.0039-9.9961-13.211-10.598v-9.9766c3.6367-0.73047 6.3633-2.3281 8.0234-4.7227 1.8828-2.6602 2.3516-6.25 1.3945-10.527-0.19922-0.88672-0.24219-0.91016-1.1328-0.79688-3.7031 0.48828-7.2695 1.8164-9.4648 4.9883-0.28906-0.60156-0.59766-1.1523-0.97656-1.6875-2.1289-3.082-5.8086-5.0117-10.773-5.6523-1.043-0.13281-1.0859-0.10938-1.3086 0.90625-1.1094 4.8984-0.55469 9 1.5977 12.059 1.9727 2.8398 5.2539 4.6562 9.6641 5.4766v9.9297c-6.207 0.59766-11.352 4.8555-13.211 10.598-1.3516-0.73047-2.9023-1.1289-4.543-1.1289-0.46484 0-0.92969 0.019531-1.375 0.089844v-8.2891c3.6562-0.73047 6.3828-2.3281 8.0234-4.7227 1.8867-2.6602 2.3711-6.2539 1.418-10.527-0.19922-0.88672-0.24219-0.91016-1.1523-0.80078-3.7031 0.48828-7.25 1.8164-9.4648 4.9883-0.26562-0.60156-0.59766-1.1523-0.97656-1.6875-2.1289-3.082-5.7852-5.0117-10.773-5.6523-1.0195-0.13281-1.0859-0.10937-1.3086 0.90625-1.0859 4.8984-0.55469 9 1.6172 12.062 1.9492 2.8359 5.2305 4.6758 9.6445 5.4766v9.1797c-1.7734 0.88672-3.2148 2.3047-4.168 4.0352-0.84375-0.3125-1.7734-0.48828-2.7266-0.48828-3.2344 0-5.9844 1.9297-7.2266 4.6797h-5.8984c-0.79688 0-1.4844 0.6875-1.4844 1.4844 0 0.82031 0.66406 1.5078 1.4844 1.5078h87.184c0.82031 0 1.4844-0.6875 1.4844-1.5078 0-0.80078-0.66406-1.4844-1.4844-1.4844zm-13.348-53.18c7.3594 0 13.301-5.9414 13.301-13.301 0-7.3359-5.9414-13.277-13.301-13.277-7.3359 0-13.277 5.9414-13.277 13.277 0 7.3594 5.9414 13.301 13.277 13.301zm-1.4844-32.496v2.6133c0 1.9727 2.9922 1.9727 2.9922 0v-2.6133c0-1.9727-2.9922-1.9727-2.9922 0zm14.031 4.5664-1.8633 1.8594c-1.3945 1.375 0.71094 3.4805 2.1055 2.1055l1.8633-1.8633c1.3984-1.3945-0.70703-3.5-2.1055-2.1016zm6.6758 13.145h-2.6172c-1.9727 0-1.9727 2.9922 0 2.9922h2.6172c1.9727 0 1.9727-2.9922 0-2.9922zm-4.5664 14.031-1.8633-1.8633c-1.3945-1.3984-3.5039 0.71094-2.1055 2.1055l1.8633 1.8633c1.3945 1.3984 3.5-0.70703 2.1055-2.1055zm-13.148 6.6719v-2.6133c0-1.9727-2.9922-1.9727-2.9922 0v2.6133c0 1.9727 2.9922 1.9727 2.9922 0zm-14.031-4.5664 1.8633-1.8633c1.3945-1.3945-0.73047-3.5039-2.1055-2.1055l-1.8633 1.8633c-1.3945 1.3984 0.71094 3.5039 2.1055 2.1055zm-6.6719-13.145h2.6133c1.9727 0 1.9727-2.9922 0-2.9922h-2.6133c-1.9727 0-1.9727 2.9922 0 2.9922zm4.5664-14.031 1.8633 1.8633c1.375 1.375 3.5039-0.73047 2.1055-2.1055l-1.8633-1.8594c-1.3945-1.4023-3.5 0.70313-2.1055 2.1016zm-46.551 26c-4.5664 0-8.2695-3.7031-8.2695-8.2695 0-4.1445 3.0586-7.582 7.0508-8.1797 0.66406-4.8086 4.8125-8.5352 9.7969-8.5352 5.0117 0 9.1562 3.7266 9.7969 8.5352 3.9883 0.59766 7.0508 4.0352 7.0508 8.1797 0 4.5664-3.7031 8.2695-8.2695 8.2695zm417.3 41.289c-10.797 0-19.617-8.8203-19.617-19.617v-6.5859c0-2.5039 2.0391-4.5195 4.5234-4.5195h15.031c-0.35547-0.80078-0.73047-1.5547-1.1523-2.3047h-32.031v4.7422l0.17578 0.17969 5.3203 5.3203c0.33203 0.33203 0.48828 0.71094 0.48828 1.1328v7.7812c0 1.6172-1.332 2.9492-2.9727 2.9492h-9.0469c-1.6172 0-2.9492-1.3281-2.9492-2.9492v-7.7812c0-0.42188 0.13281-0.80078 0.46484-1.1328l5.3203-5.3203 0.19922-0.17969v-4.7422h-13.059c-0.46484 0.82031-0.86328 1.6406-1.2422 2.5039l-6.7812-3.9453c-0.66406-0.37891-1.4375-0.44141-2.0156 0.15234l-5.7852 6.9609c-0.53125 0.6875-0.66406 1.5742 0 2.2188l12.395 12.414v12.723h-11.328c-0.86328 0-1.5273 0.6875-1.5078 1.5312 0.023438 5.2109 4.2773 9.4648 9.4883 9.4648h71.18c5.2109 0 9.4648-4.2578 9.4883-9.4648 0-0.84375-0.64453-1.5312-1.5078-1.5312h-23.078zm-16.625-19.617c0 9.1328 7.4922 16.605 16.625 16.605 5.9375 0 11.191-3.1719 14.121-7.8906 0.91016 0.39844 1.9062 0.59766 2.9688 0.59766 4.1445 0 7.4922-3.3477 7.4922-7.4922 0-4.1445-3.3477-7.4922-7.4922-7.4922h-0.46484v-0.91016c0-0.84375-0.6875-1.5273-1.5273-1.5273h-30.191c-0.84375 0-1.5273 0.6875-1.5273 1.5273v6.582zm32.121 5.9648c0.73047-1.8594 1.1328-3.8555 1.1328-5.9648v-2.5938c0.15625-0.019531 0.3125-0.019531 0.46484-0.019531 2.4375 0 4.4336 1.9727 4.4336 4.4336 0 2.4609-1.9922 4.4336-4.4336 4.4336-0.55469 0-1.1094-0.089844-1.5977-0.28906zm-18.465-22.434v-19.262c0-6.9609-5.2773-12.746-12.016-13.59-0.66406-1.6172-2.2852-2.793-4.1445-2.793h-12.391c-1.9727 0-3.6562 1.2852-4.2578 3.082-6.6953 0.86328-11.902 6.6289-11.902 13.566v18.996h44.512l0.19922-0.003906zm-41.652-3.1484v-15.852c0-5.2734 3.8789-9.6875 8.9336-10.484 0.66406 1.6406 2.2812 2.8164 4.168 2.8164h12.391c1.9727 0 3.6562-1.2852 4.2578-3.0586 4.9883 0.84375 8.8438 5.2305 8.8438 10.465v15.98c-4.6328-4.543-10.84-7.4688-17.711-7.8477v-4.3008c0-0.84375-0.6875-1.5312-1.5273-1.5312-0.82031 0-1.5273 0.6875-1.5273 1.5312v4.3008c-6.9219 0.375-13.195 3.3672-17.828 7.9805zm9.8633 13.766-4.4102 4.4102v7.0703h8.8438v-7.0703zm-617.77 100c-1.5078 0-2.7461 1.2422-2.7461 2.7266v4.9648h-1.9062c-4.6094 0-8.4023 3.7695-8.4023 8.3789v5.875c0 5.0977 3.125 8.8672 7.6055 10.973l2.7031 1.2852v8.3125c0 4.4102 3.6133 8.0234 8.0234 8.0234h17.203c4.4102 0 8.0234-3.6133 8.0234-8.0234l-0.003906-2.457c-4.3633-4.3008-8.6641-8.668-13.012-13.012-5.4961-5.4961-2.8359-14.188 4.3906-16.426 1.9727-0.59766 4.0117-0.53125 5.918 0.22266l2.7031 1.0859v-9.2031c0-1.4844-1.2383-2.7266-2.7266-2.7266zm23.277-3.0352c1.9062-3.082 1.8828-5.4297 0.55469-8.6211-1.0625-2.5039-1.4648-3.7891 0.13281-6.3164 1.0898-1.7969-1.6406-3.3711-2.6562-1.5977-1.9062 3.082-1.8867 5.4336-0.55469 8.625 1.0391 2.5039 1.4648 3.7891-0.13672 6.3164-1.0859 1.793 1.6367 3.3672 2.6602 1.5938zm-8.4023 0c1.9062-3.082 1.8828-5.4297 0.53125-8.6211-1.043-2.5039-1.4375-3.7891 0.15625-6.3164 1.0859-1.7969-1.6406-3.3711-2.6602-1.5977-1.9062 3.082-1.8867 5.4336-0.55469 8.625 1.0391 2.5039 1.4648 3.7891-0.13281 6.3164-1.0859 1.793 1.6406 3.3672 2.6602 1.5938zm-8.4258 0c1.9297-3.082 1.9062-5.4297 0.55469-8.6211-1.043-2.5039-1.4414-3.7891 0.13281-6.3164 1.1055-1.7969-1.6406-3.3711-2.6602-1.5977-1.9062 3.082-1.8867 5.4336-0.53125 8.625 1.043 2.5039 1.4414 3.7891-0.15625 6.3164-1.0859 1.793 1.6641 3.3672 2.6602 1.5938zm32.586 0c-1.9062-3.082-1.8867-5.4297-0.55469-8.6211 1.043-2.5039 1.4648-3.7891-0.13281-6.3164-1.0859-1.7969 1.6445-3.3711 2.6602-1.5977 1.9062 3.082 1.8867 5.4336 0.55469 8.625-1.0625 2.5039-1.4648 3.7891 0.13281 6.3164 1.0859 1.793-1.6406 3.3672-2.6602 1.5938zm8.4023 0c-1.9062-3.082-1.8828-5.4297-0.55469-8.6211 1.0625-2.5039 1.4648-3.7891-0.13281-6.3164-1.0898-1.7969 1.6406-3.3711 2.6602-1.5977 1.9062 3.082 1.8867 5.4336 0.55469 8.625-1.043 2.5039-1.4648 3.7891 0.13281 6.3164 1.0859 1.793-1.6406 3.3672-2.6602 1.5938zm8.4023 0c-1.9062-3.082-1.8867-5.4297-0.53125-8.6211 1.0391-2.5039 1.4375-3.7891-0.15234-6.3164-1.0898-1.7969 1.6406-3.3711 2.6562-1.5977 1.9297 3.082 1.9062 5.4336 0.55469 8.625-1.0391 2.5039-1.4375 3.7891 0.13281 6.3164 1.1094 1.793-1.6406 3.3672-2.6602 1.5938zm8.2227 3.0352c1.5078 0 2.75 1.2422 2.75 2.7266v4.9648h1.9023c4.6094 0 8.4023 3.7695 8.4023 8.3789v5.875c0 5.0977-3.125 8.8672-7.6055 10.973l-2.7031 1.2852v8.3125c0 4.4102-3.6133 8.0234-8.0234 8.0234h-17.203c-4.4102 0-8.0234-3.6133-8.0234-8.0234l0.003906-2.457c4.3672-4.3008 8.6641-8.668 13.012-13.012 5.4961-5.4961 2.8398-14.188-4.3906-16.426-1.9727-0.59766-4.0156-0.53125-5.918 0.22266l-2.7031 1.0859v-9.2031c0-1.4844 1.2383-2.7266 2.7266-2.7266zm-30.5 35.758v-20.527l3.8359-1.5508c1.2656-0.48828 2.5703-0.53125 3.8789-0.13281 5.0547 1.5508 7.0078 7.4727 3.1289 11.352-3.6172 3.6094-7.2109 7.2461-10.844 10.859zm33.25-25.07v20.195l1.4375-0.66406c3.3945-1.6172 5.8516-4.3438 5.8516-8.2695v-5.875c0-2.9492-2.4375-5.3867-5.3867-5.3867zm-36.312 25.07v-20.527l-3.8359-1.5508c-1.2656-0.48828-2.5703-0.53125-3.8789-0.13281-5.0547 1.5508-7.0078 7.4727-3.1289 11.352 3.6211 3.6094 7.2109 7.2461 10.844 10.859zm-33.25-25.07v20.195l-1.4414-0.66406c-3.4141-1.6172-5.8516-4.3438-5.8516-8.2695v-5.875c0-2.9492 2.4375-5.3867 5.3867-5.3867zm377.93 49.039c-0.60156 0.59766-1.5742 0.59766-2.1719 0l-4.4805-4.4766c-0.55469-0.53125-0.46875-1.1523-0.46875-1.8164v-30.727c1.6172 0.57422 3.4609 0.22266 4.7422-1.0625l1.2852-1.2852 1.2656 1.2852c0.42188 0.42188 0.88672 0.73047 1.3945 0.95312v22.984c0 1.2852 1.0625 2.3281 2.3516 2.3281h26.578c1.2852 0 2.3516-1.043 2.3516-2.3281v-23.387c0.26562-0.17578 0.53125-0.375 0.75391-0.62109l1.2188-1.2188 1.2656 1.2852c1.2852 1.2852 3.1484 1.6406 4.7422 1.0625v31.035c0 0.57422 0.019532 1.043-0.44141 1.5078l-4.4531 4.4531c-0.60156 0.62109-1.5977 0.64453-2.1953 0.023438l-3.4141-3.3906-3.3672 3.3672c-0.60156 0.62109-1.5742 0.64453-2.1953 0.023438l-3.4141-3.3906-3.3672 3.3672c-0.60156 0.62109-1.5742 0.64453-2.1953 0.023438l-3.4102-3.3906-3.3711 3.3672c-0.59766 0.62109-1.5742 0.64453-2.1914 0.023438l-3.4141-3.3906zm-9.0469-57.793h51.805c1.418 0 2.5508 1.1328 2.5508 2.5508v8.8438c0 0.57422 0.042969 1.2188-0.44531 1.707l-4.4531 4.457c-0.59766 0.62109-1.5742 0.64453-2.1953 0.019531l-3.3906-3.3906-3.3672 3.3711c-0.60156 0.62109-1.5977 0.64453-2.1953 0.019531l-3.4141-3.3906-3.3672 3.3711c-0.59766 0.62109-1.5977 0.64453-2.2188 0.019531l-3.3906-3.3906-3.4141 3.3906c-0.61719 0.62109-1.5938 0.59766-2.1914-0.019531l-3.3906-3.3711-3.3711 3.3711c-0.59766 0.62109-1.5703 0.64453-2.1914 0.019531l-3.3945-3.3906-3.3672 3.3711c-0.59766 0.62109-1.5977 0.64453-2.1914 0.019531l-4.5-4.4766c-0.46875-0.46484-0.44531-1.1094-0.44531-1.6836v-8.8672c-0.011719-1.418 1.1406-2.5508 2.5391-2.5508zm13.613 20.883c0.77344-0.22266 1.5078-0.62109 2.1055-1.2422l1.1953-1.2188 1.2656 1.2422c1.7305 1.7969 4.6328 1.8594 6.4492 0.046875l1.2852-1.2852 1.2852 1.2852c1.7969 1.8164 4.6992 1.75 6.4727-0.066406l1.2188-1.2188 1.2852 1.2852c0.75391 0.77344 1.7305 1.1953 2.7266 1.3086v21.969h-25.289zm-11.688-23.895v-12.945h14.496v12.945zm0-15.938v-9.3555c0-1.9727 1.6406-3.6133 3.6133-3.6133h10.887v12.969zm17.492-12.969h12.969v12.969h-12.969zm12.969 15.961v12.945h-12.969v-12.945zm3.0117-15.961h10.863c1.9727 0 3.6133 1.6406 3.6133 3.6133v9.3555h-14.477zm14.48 15.961v12.945h-14.477l-0.003906-12.945zm171.75 72.105c3.1055-8.3555 7.0039-16.805 12.324-24.027 4.0586-10.863 0.57422-25.07-6.9375-33.648-0.51172-0.44531-0.66406-1.1953-0.35547-1.8164 0.37891-0.75391 1.2852-1.0625 2.0391-0.6875 6.5625 2.9023 15.871 7.5586 17.445 15.25 0.62109 2.9727-0.089844 6.4297-1.4414 9.8008 1.5273-1.1523 3.125-2.2188 4.8125-3.1914 4.2344-2.4375 8.6016-4.0352 13.188-5.4961 6.2539-8.8906 8.5352-18.555 4.9219-29.105-0.28906-0.53125-0.17578-1.1953 0.3125-1.6172 0.55469-0.48828 1.418-0.42187 1.9062 0.13281 4.4336 4.5898 10.527 11.551 9.2422 18.422-0.55469 2.9492-2.6602 5.8984-5.2969 8.4258 0.82031-0.375 1.6406-0.77344 2.4375-1.2188 6.7188-3.6562 10.109-9.4414 12.215-16.402 0.77734-8.0469-1.2852-15.23-7.4492-20.949-0.375-0.26562-0.55469-0.77344-0.375-1.2383 0.22266-0.55469 0.82031-0.82031 1.375-0.62109 4.7422 1.5508 11.551 4.1211 13.188 9.3555 1.3945 4.3906-1.3945 10.93-3.9883 14.742-0.35547 1.1523-0.77344 2.3047-1.2188 3.4141 2.4805-1.6836 5.2305-2.9023 7.7148-2.793 5.4766 0.22266 9.7109 6.1406 12.438 10.328 0.33203 0.46484 0.22266 1.1289-0.24219 1.4844-0.39844 0.28906-0.93359 0.24219-1.2852-0.042969-7.3164-4.5898-14.984-4.6094-22.789-1.5508-2.0859 2.7266-4.7422 5.0742-8.1367 6.918-4.0117 2.1914-8.4883 3.4805-12.855 4.832l-0.089843 0.046875c2.1719 0.042969 4.2109 0.42188 5.9414 1.2617 7.0508 3.4375 9.2656 13.609 10.441 20.703 0.17969 0.80078-0.35547 1.6172-1.1523 1.7969-0.71094 0.15625-1.3945-0.19922-1.6836-0.79688-7.3398-10.707-18.066-15.051-30.855-15.074-11.172 8.0234-18.355 21.969-22.988 34.535-0.69531 1.8438-3.5977 0.69141-2.8008-1.1719zm-532.62 49.562h10.816c5.5195 0 10.02 4.5 10.02 10.02v26.137c0 5.5195-4.5 10.02-10.02 10.02h-10.816v15.16c0 6.1602-5.0312 11.195-11.195 11.195h-36.953c-6.1406 0-11.172-5.0312-11.172-11.195v-40.125c0.95313 0.57813 1.9492 1.1094 2.9922 1.5547v38.57c0 4.5 3.7031 8.1797 8.1797 8.1797h36.953c4.5 0 8.2031-3.6797 8.2031-8.1797v-75.547c0-0.22266-0.19922-0.42188-0.42188-0.42188h-28.684c-1.2422-1.1523-2.6133-2.1484-4.0781-2.9922h32.762c1.8867 0 3.4141 1.5273 3.4141 3.4141zm-47.438-11.617c7.5156 0 13.59 6.0742 13.59 13.59s-6.0742 13.59-13.59 13.59-13.609-6.0742-13.609-13.59 6.0938-13.59 13.609-13.59zm0 20.105c0.82031 0 1.4844 0.66406 1.4844 1.4844 0 0.84375-0.66406 1.5078-1.4844 1.5078-0.84375 0-1.5078-0.66406-1.5078-1.5078 0-0.82031 0.66406-1.4844 1.5078-1.4844zm4.7227-4.0117c0.82031 0 1.4844 0.66406 1.4844 1.4844 0 0.82031-0.66406 1.5078-1.4844 1.5078-0.82031 0-1.5078-0.6875-1.5078-1.5078 0-0.82031 0.68359-1.4844 1.5078-1.4844zm-4.7227 0c0.82031 0 1.4844 0.66406 1.4844 1.4844 0 0.82031-0.66406 1.5078-1.4844 1.5078-0.84375 0-1.5078-0.6875-1.5078-1.5078 0-0.82031 0.66406-1.4844 1.5078-1.4844zm-4.7227 0c0.82031 0 1.4844 0.66406 1.4844 1.4844 0 0.82031-0.66406 1.5078-1.4844 1.5078-0.84375 0-1.5078-0.6875-1.5078-1.5078 0-0.82031 0.66406-1.4844 1.5078-1.4844zm0-5.0312c0.82031 0 1.4844-0.66406 1.4844-1.4844 0-0.82031-0.66406-1.5078-1.4844-1.5078-0.84375 0-1.5078 0.6875-1.5078 1.5078 0 0.82031 0.66406 1.4844 1.5078 1.4844zm4.7227 0c0.82031 0 1.4844-0.66406 1.4844-1.4844 0-0.82031-0.66406-1.5078-1.4844-1.5078-0.84375 0-1.5078 0.6875-1.5078 1.5078 0 0.82031 0.66406 1.4844 1.5078 1.4844zm4.7227 0c0.82031 0 1.4844-0.66406 1.4844-1.4844 0-0.82031-0.66406-1.5078-1.4844-1.5078-0.82031 0-1.5078 0.6875-1.5078 1.5078 0 0.82031 0.68359 1.4844 1.5078 1.4844zm-11.816 4.0352c0.82031 0 1.4844-0.6875 1.4844-1.5078 0-0.82031-0.66406-1.5078-1.4844-1.5078s-1.5078 0.6875-1.5078 1.5078c0 0.82031 0.6875 1.5078 1.5078 1.5078zm4.7227 0c0.82031 0 1.5078-0.6875 1.5078-1.5078 0-0.82031-0.6875-1.5078-1.5078-1.5078-0.82031 0-1.4844 0.6875-1.4844 1.5078-0.003906 0.82031 0.66406 1.5078 1.4844 1.5078zm4.7188 0c0.84375 0 1.5078-0.6875 1.5078-1.5078 0-0.82031-0.66406-1.5078-1.5078-1.5078-0.82031 0-1.4844 0.6875-1.4844 1.5078 0 0.82031 0.66406 1.5078 1.4844 1.5078zm4.7461 0c0.82031 0 1.4844-0.6875 1.4844-1.5078 0-0.82031-0.66406-1.5078-1.4844-1.5078-0.84375 0-1.5078 0.6875-1.5078 1.5078 0 0.82031 0.66406 1.5078 1.5078 1.5078zm-7.0938-8.0469c0.82031 0 1.4844-0.66406 1.4844-1.4844 0-0.84375-0.66406-1.5078-1.4844-1.5078-0.84375 0-1.5078 0.66406-1.5078 1.5078 0 0.81641 0.66406 1.4844 1.5078 1.4844zm0 26.133c10.816 0 19.598-8.7773 19.598-19.598 0-10.816-8.7773-19.598-19.598-19.598-10.84 0-19.617 8.7773-19.617 19.598s8.7773 19.598 19.617 19.598zm0-36.199c9.1562 0 16.605 7.4258 16.605 16.602 0 9.1797-7.4492 16.605-16.605 16.605-9.1758 0-16.602-7.4258-16.602-16.605-0.003906-9.1719 7.4219-16.602 16.602-16.602zm-5.875 38.438v37.531c0 2.8398 2.3281 5.1875 5.1641 5.1875h36.953c2.8359 0 5.1875-2.3516 5.1875-5.1875v-55.641c0-0.86328-0.64453-1.5508-1.5078-1.5508h-17.426c-1.0859 11.461-10.75 20.438-22.5 20.438-2.0352 0-4.0078-0.26562-5.8711-0.77734zm53.312 19.379h10.816c3.8555 0 7.0273-3.1719 7.0273-7.0273v-26.137c0-3.8789-3.1719-7.0273-7.0273-7.0273h-10.816v2.9922h10.816c2.2188 0 4.0117 1.8164 4.0117 4.0352v26.137c0 2.2188-1.7969 4.0117-4.0117 4.0117h-10.816zm0-34.184v28.176h10.816c0.55469 0 1.0195-0.46484 1.0195-1.0195v-26.137c0-0.57422-0.46484-1.0195-1.0195-1.0195l-10.816-0.003906zm76.984 12.254c-0.59766 0.62109-0.93359 1.375-0.93359 2.3281v22.566c2.5039 1.3984 4.7227 3.2812 6.4297 5.7422 0.62109 0.86328 1.1758 1.7969 1.6172 2.7695l0.82031 1.7305 1.1523-1.6875c0.86328-1.2422 1.8828-2.3047 3.0156-3.2148-0.99609-1.75-0.79687-4.0117 0.73047-5.4961l12.68-12.391 2.1289-13.434h-23.449c0.57422-1.3516 0.88672-2.793 0.88672-4.3438v-2.1055h40.059v2.1055c0 1.5508 0.30859 2.9922 0.86328 4.3438h-2.5703l-2.2188 13.879c2.418 6.25 1.0625 13.609-4.0352 18.574-3.1484 3.082-7.1836 4.7227-11.285 4.9219-0.42188 2.4609-1.3086 4.832-2.793 6.9609-3.3711 4.7891-8.8906 7.0273-14.496 7.9141 0.55469 0.089844 1.1094 0.13281 1.6641 0.13281h29.66c6.1641 0 11.195-5.0312 11.195-11.195v-37.773c0-0.95312-0.33203-1.707-0.91016-2.3281-1.2852-1.4414-2.082-3.3477-2.082-5.4297v-2.1055h0.95312c1.1289 0 2.0391-0.93359 2.0391-2.0625v-6.1641c0-1.1094-0.91016-2.0391-2.0391-2.0391l-47.949 0.003906c-1.1289 0-2.0625 0.92969-2.0625 2.0391v6.1641c0 1.1289 0.93359 2.0625 2.0625 2.0625h0.93359v2.1055c-0.003906 2.0781-0.78125 3.9844-2.0664 5.4258zm26.18 33.254c3.2344-0.24219 6.4062-1.5742 8.9102-4.0352 5.5859-5.4766 5.7188-14.453 0.3125-20.086-0.59766-0.59766-1.5508-0.77344-2.2148-0.10938l-18.242 17.867c-0.46484 0.44141-0.55469 1.0859-0.33203 1.6172 1.5742-0.88672 3.3047-1.5742 5.0742-2.1055l14.453-14.121c3.3242 4.4531 2.9258 10.797-1.1523 14.785-1.9492 1.9062-4.3906 2.9727-6.8945 3.1914 0.085938 1 0.10938 1.9961 0.085938 2.9961zm-14.652 1.9062c2.3945-3.3945 6.1836-5.2344 10.129-6.2109l1.2188-0.28516 0.13281 1.2422c0.46484 4.0352 0.023438 8.2461-2.3516 11.637-2.7695 3.9688-6.8711 5.4336-11.352 6.5195-0.50391-4.5664-0.52734-8.9336 2.2227-12.902zm-5.918 12.922c-5.4766-1.1758-10.574-2.9688-13.922-7.7812-2.9922-4.2578-3.3906-9.5547-2.7031-14.562l0.17578-1.1758 1.1523 0.24219c4.9414 1.0625 9.7773 3.2812 12.77 7.5352 3.3477 4.793 3.2812 10.223 2.5273 15.742zm29.262-28.949c0 0.82031-0.6875 1.4844-1.5078 1.4648h-1.1289c-0.79688-0.019532-1.4648-0.6875-1.4648-1.5078s0.6875-1.4844 1.5078-1.4844l1.1289 0.019531c0.82031 0 1.4844 0.6875 1.4648 1.5078zm-5.0312 6.8477-0.79688-0.79688c-1.375-1.4219 0.75391-3.5039 2.1289-2.0859l0.79688 0.79687c1.3711 1.3984-0.80078 3.4609-2.1289 2.0859zm-6.3203 1.3086 0.023438-1.1289c0.023437-1.9492 2.9922-1.9297 2.9688 0.046874 0 0.375 0 0.79688-0.023438 1.1055 0.003907 1.9727-2.9922 1.9258-2.9688-0.023437zm12.547-62.18-2.2383 14.074h9.6875l2.0195-12.566c0.97266-6.1836-8.4727-7.8242-9.4688-1.5078zm-4.832 30.348-2.1289 13.367 1.9727-1.9492c1.8633-1.7969 4.7227-1.6602 6.4727 0.17969 0.46484 0.48828 0.91016 0.99609 1.3086 1.5078 0.6875-4.3672 1.375-8.7344 2.082-13.102zm10.242 42.629c2.4844 0 4.5-1.9961 4.5-4.4766 0-2.4844-2.0195-4.5-4.5-4.5-2.4805 0-4.5 2.0156-4.5 4.5 0 2.4805 2.0156 4.4766 4.5 4.4766zm0-5.9883c0.82031 0 1.4844 0.66406 1.4844 1.5078 0 0.82031-0.66406 1.4844-1.4844 1.4844-0.82031 0-1.4844-0.66406-1.4844-1.4844 0-0.83984 0.66406-1.5078 1.4844-1.5078zm-29.906-13.164c2.4805 0 4.5-2.0195 4.5-4.5s-2.0156-4.5-4.5-4.5c-2.4844 0-4.5 2.0195-4.5 4.5s2.0195 4.5 4.5 4.5zm0-5.9883c0.82031 0 1.4844 0.66406 1.4844 1.4844 0 0.82031-0.66406 1.5078-1.4844 1.5078-0.82031 0-1.5078-0.6875-1.5078-1.5078 0-0.81641 0.69141-1.4844 1.5078-1.4844zm271.21 29.109v-52.98h-45.754v52.98zm-16.23-70.867v-3.4375c0-3.6367-2.9922-6.6289-6.6484-6.6289s-6.6484 2.9922-6.6484 6.6289v3.4375h-10.062c-2.1719 0-3.9688 1.7734-3.9688 3.9453 0 1.5742 0.90625 2.9023 2.2148 3.5703l-3.6562 7.3164h44.246l-3.6562-7.3164c1.3086-0.66406 2.1953-1.9961 2.1953-3.5703 0-2.1719-1.7734-3.9453-3.9453-3.9453zm-5.6523 42.117c-0.15625-0.26953-0.3125-0.53125-0.48828-0.77734-1.9727-2.8555-5.2969-4.1211-8.6211-4.543-0.99609-0.13281-1.1953 0-1.418 0.99609-0.73047 3.2617-0.6875 6.8281 1.3086 9.6641 1.8164 2.5703 4.7227 3.8555 7.7578 4.4102 0.88672 0.15234 1.2188 0.15234 2.1055 0 2.6602-0.46875 5.2109-1.5977 6.7812-3.8555 1.75-2.5078 1.7969-5.6328 1.1523-8.4883-0.19922-0.88672-0.37891-1.0195-1.2852-0.91016-2.7031 0.35547-5.4336 1.332-7.2031 3.5039l-0.046876 0.066406zm1.2656 6.4062c0-0.22266-0.023438-0.44531-0.023438-0.6875 0-0.10938 0.023438-0.24219 0.023438-0.37891 0.042969-1.1094 0.33203-2.1719 0.95312-3.1055 0.86328-1.1953 2.1914-1.9062 3.5898-2.3281h0.066406v0.066406c0.10938 1.4414-0.089844 2.9492-0.95312 4.168-0.84375 1.2188-2.1719 1.9062-3.5664 2.3281l-0.066406 0.019531zm-9.043-8.3789c1.8594 0.46484 3.6562 1.3516 4.7852 2.9453 0.88672 1.2656 1.1953 2.7695 1.1953 4.2773-0.023438 0.13281-0.023438 0.28516-0.023438 0.42188 0 0.26562-0.019531 0.53125-0.066406 0.80078v0.066406l-0.066406-0.023437c-1.8398-0.46484-3.6602-1.3281-4.7656-2.9453-1.1328-1.5977-1.3281-3.5938-1.1328-5.4766l0.019531-0.066407zm6.7812 21.191c9.3555 0 16.957-7.6055 16.957-16.961 0-9.375-7.6055-16.957-16.957-16.957-9.3789 0-16.957 7.582-16.957 16.957 0 9.3594 7.5781 16.961 16.957 16.961zm0-3.0586c7.6719 0 13.898-6.2305 13.898-13.898 0-7.6914-6.2305-13.898-13.898-13.898-7.6914 0-13.898 6.207-13.898 13.898 0 7.668 6.207 13.898 13.898 13.898zm-21.855 15.648 4.4102 5.5195c0.26562 0.39844 0.73047 0.64453 1.2188 0.64453h32.43c0.51172 0 0.95312-0.24219 1.2422-0.64453l4.4102-5.5195zm137.09-60.488h39.371c1.9062 0 3.457 1.5508 3.457 3.4609 0 1.8828-1.5508 3.4336-3.457 3.4336h-21.082c-1.8867 3.0586-5.2539 5.0977-9.1094 5.0977-5.7852 0-10.508-4.5898-10.707-10.328-0.066406-0.89062 0.64453-1.6641 1.5273-1.6641zm9.5547-23.078 4.2148 4.2109c0.57422 0.57422 0.57422 1.5078 0 2.0625l-4.2148 4.2344c-0.57422 0.55469-1.5078 0.55469-2.0859 0l-4.2109-4.2344c-0.57812-0.55469-0.57812-1.4844 0-2.0625l4.2109-4.2109c0.58203-0.57422 1.5117-0.57422 2.0859 0zm1.375 13.059 5.7656-1.5508c0.77344-0.19922 1.5703 0.26562 1.7969 1.0391l1.5273 5.7656c0.22266 0.77344-0.24219 1.5742-1.0195 1.7969l-5.7656 1.5312c-0.77344 0.22266-1.5977-0.24219-1.7969-1.0195l-1.5547-5.7656c-0.19141-0.77734 0.27344-1.5977 1.0469-1.7969zm-12.258 0.82031 5.7422-1.5273c0.79688-0.22266 1.5977 0.24219 1.7969 1.0195l1.5547 5.7656c0.19922 0.77344-0.26562 1.5938-1.0391 1.7969l-5.7656 1.5508c-0.77344 0.19922-1.5742-0.26562-1.7969-1.043l-1.5273-5.7656c-0.22656-0.77734 0.23828-1.5742 1.0352-1.7969zm11.414 26.469c-4.9219-5.3438-11.191-8.5352-18.066-8.5352-6.8516 0-13.121 3.1914-18.043 8.5352zm-40.875 15.16c-1.3086 6.8945-1.4648 14.719 0.24219 20.527 0.91016 3.0586 0.99609 3.5469-0.30859 6.25-1.3945 2.9023-1.0625 7.4492 4.168 7.4492h37.438c5.2305 0 5.5625-4.543 4.168-7.4492-1.3086-2.7031-1.2188-3.1914-0.3125-6.25 1.707-5.8086 1.5547-13.633 0.24219-20.527-0.33594 0.042969-0.6875 0.066406-1.0195 0.066406h-43.605c-0.32031 0-0.67969-0.023437-1.0117-0.066406zm11.195 5.1445h23.254c1.3516 0 2.4609 1.0859 2.4609 2.4375v10.66c0 1.3281-1.1094 2.4375-2.4609 2.4375h-23.254c-1.3516 0-2.4609-1.1094-2.4609-2.4375v-10.66c0-1.3516 1.1094-2.4375 2.4609-2.4375zm0.62109 3.0586h22.035v9.4219h-22.035zm-10.793-20.371h43.605c1.9297 0 3.5234 1.5742 3.5234 3.5234v2.1953c0 1.9297-1.5977 3.5234-3.5234 3.5234h-43.605c-1.9297 0-3.5234-1.5977-3.5234-3.5234v-2.1953c-0.003906-1.9492 1.5898-3.5234 3.5234-3.5234zm138.61-13.895c-0.089843-0.55469-0.22266-1.1094-0.37891-1.6406-1.3281-4.6562-4.9688-8.1562-9.4414-9.8203l-1.1523-0.44531 39.371-9.7305c6.5625-1.6172 13.922 1.5977 16.227 8.1367l0.13672 0.37891-44.688 13.547zm16.273 38.086c-0.10938-0.55469-0.22266-1.1094-0.37891-1.6641-1.3516-4.6328-4.9648-8.1562-9.4414-9.7969l-1.1523-0.44141 39.367-9.7305c6.5625-1.6172 13.898 1.5977 16.203 8.1367l0.13281 0.375-44.668 13.547zm-16.492 8.0898c1.5742-0.042969 1.5977-2.2812-0.15234-2.2188-1.4648 0.066406-3.082-0.28906-3.7891-1.707-0.51172-1.0625-0.37891-2.3281 0.17969-3.3242 0.6875-1.1992 1.8594-1.9062 3.2148-2.0625 3.457-0.39844 6.5625 1.3516 8.1797 4.4102 0.84375 1.5977 1.1953 3.4805 0.82031 5.2539-0.75391 3.5898-3.9883 5.2539-7.3359 5.8086-5.7852 0.92969-11.727-3.4375-13.32-8.8906-0.64453-2.2383-0.60156-4.5664 0.10937-6.7617 1.375-4.3203 5.0547-7.3828 9.3789-8.4688 6.8047-1.6875 14.406 1.8398 16.43 8.7773 0.26562 0.93359 0.42188 1.8867 0.46484 2.8398 0.023438 0.95312 0.6875 1.5078 1.6172 1.2422l41.031-12.438 0.019531 0.46484c0.17969 3.4375-1.2656 6.7812-3.7461 9.1562l-0.066406 0.066407-44.066 12.57 0.60156-0.86328c0.64453-0.95312 1.0859-1.9727 1.3086-3.082 0.48828-2.2617 0.046875-4.6094-1.0195-6.6289-2.082-3.9688-6.2305-6.1836-10.703-5.6523-2.1289 0.24219-4.0352 1.3711-5.1016 3.2578-0.88672 1.5742-1.0391 3.5664-0.22266 5.2109 1.1328 2.3516 3.707 3.1484 6.168 3.0391zm-16.273-38.086c1.5703-0.046874 1.5977-2.2812-0.15625-2.2148-1.4648 0.066406-3.0586-0.28906-3.7695-1.707-0.53125-1.0391-0.37891-2.3281 0.17578-3.3242 0.66406-1.1953 1.8398-1.9062 3.2148-2.0625 3.4609-0.39844 6.5625 1.3516 8.1562 4.4102 0.84375 1.5977 1.2188 3.4805 0.84375 5.2539-0.75391 3.5938-4.0117 5.2539-7.3594 5.8086-5.7852 0.95312-11.727-3.4375-13.301-8.8906-0.64453-2.2383-0.62109-4.5664 0.089844-6.7617 1.3945-4.3008 5.0547-7.3828 9.3984-8.4688 6.8047-1.6875 14.406 1.8398 16.426 8.7773 0.26562 0.93359 0.42188 1.8867 0.44141 2.8398 0.046875 0.95312 0.6875 1.5312 1.6172 1.2422l41.055-12.438 0.019532 0.48828c0.15625 3.4375-1.2852 6.7617-3.7422 9.1328l-0.066406 0.066406-44.066 12.566 0.59766-0.86328c0.64453-0.93359 1.0625-1.9727 1.3086-3.082 0.46484-2.2617 0.046874-4.6094-1.0195-6.6289-2.0859-3.9688-6.2539-6.1836-10.73-5.6523-2.1055 0.24219-4.0352 1.375-5.0781 3.2617-0.88672 1.5742-1.0625 3.5664-0.24219 5.2109 1.1797 2.3477 3.7266 3.1484 6.1875 3.0352zm-551.55 110.73c2.6133-1.3945 5.1641-1.4844 7.1836-0.64453 3.1484-4.7422 4.168-9.3555 1.7969-14.742-0.99609-1.8633 1.9297-3.3477 2.8125-1.3086 0.95313 2.1289 1.5273 4.1211 1.5977 6.4727 1.6641 1.2188 2.9727 2.6602 4.0156 4.3242 5.2969 1.9297 8.8672 4.9219 10.527 8.8203 1.7734 4.0156 1.4375 8.8672-0.97656 14.254-0.51172 1.1055-0.57422 1.1289-1.7305 0.73047-5.5625-1.9062-9.332-4.9648-11.062-9.0234-1.6602-3.7461-1.4648-8.2461 0.55469-13.211-0.48438-0.75391-1.0195-1.4414-1.6602-2.0859-0.57422 2.8164-1.7969 5.2539-3.3672 7.625 1.3945 1.6836 2.0391 4.1445 1.4414 7.0508-0.3125 1.5742-0.57422 2.793 0.39844 4.1445 14.211 19.574-12.48 55.527-35.336 47.613-1.5703-0.53125-2.6602 0.089843-4.0781 0.84375-6.4727 3.4609-12.594-1.0625-11.129-8.2656 0.30859-1.5742 0.57422-2.793-0.39844-4.1445-14.211-19.574 12.48-55.527 35.336-47.613 1.5703 0.53516 2.6562-0.085937 4.0742-0.83984zm-41.031-8.6016c1.2852-2.6836 3.2578-4.2773 5.4062-4.8086-0.3125-5.6953-2.2383-9.9961-7.3398-12.902-1.9062-0.88672-0.48438-3.8555 1.4844-2.7266 2.0156 1.1328 3.6797 2.4141 5.1172 4.2344 2.0391 0 3.9688 0.37891 5.7852 1.0859 5.4062-1.6172 10.062-1.3281 13.723 0.82031 3.8359 2.1719 6.4492 6.25 7.7148 12.016 0.26562 1.1953 0.22266 1.2656-0.93359 1.6406-5.6289 1.7734-10.484 1.5508-14.273-0.66406-3.5664-2.0391-6.0977-5.7383-7.4453-10.949-0.82031-0.3125-1.6641-0.53125-2.5508-0.66406 1.1953 2.5938 1.6836 5.2773 1.8164 8.1133 2.1289 0.53125 4.1016 2.1289 5.3633 4.8086 0.6875 1.4414 1.1953 2.5938 2.793 3.082 2.3242 0.75391 4.4336 1.8828 6.2969 3.3047-17.445 5.0742-32.012 27.223-27.488 44.555-4.5195-4.2344-6.6289-12.059-6.3164-19.641 0.019531-0.92969-0.55469-1.7305-1.5273-1.7305-0.75391 0-1.5078 0.64453-1.5273 1.3984-0.42188 8.957 2.3281 18.242 8.1992 23.012 0.75391 0.75391 1.6406 0.55469 2.1914-0.023438 0.6875 1.6836 1.5742 3.3242 2.6836 4.8789 0.28516 0.375-0.023438 1.3711-0.10938 1.7734-0.19922 0.95312-0.28906 1.8828-0.26562 2.7695-0.39844-0.42188-0.88672-0.77734-1.5742-0.99609-23.074-7.25-23.074-52.027 0-59.297 1.6016-0.49609 2.1133-1.6484 2.7773-3.0898zm7.2695 47.906c-1.6836-6.25 1.332-14.344 6.3633-20.594 0.59766-0.73047 0.64453-1.707-0.17969-2.3281-0.64453-0.46484-1.5977-0.37891-2.0859 0.24219-5.6523 6.9609-8.9805 16.027-7.0938 23.344 0.29297 2.1719 3.6406 1.418 2.9961-0.66406zm118.92-60.93c3.6562-3.2148 8.6445-5.5195 14.809-6.8711 0.95312-0.22266 1.4648-0.3125 1.7969-0.10938 0.33203 0.19922 0.51172 0.66406 0.79688 1.6172 1.9062 6.0078 2.3945 11.461 1.4648 16.246-1.5312-0.53125-3.1055-0.90625-4.6992-1.0625-0.089844-1.6602-0.44141-3.3477-0.95312-4.9414-0.35547-1.1328-0.84375-2.0391-1.9297-2.6602-1.0898-0.62109-2.1055-0.59766-3.2812-0.35547-1.6406 0.37891-3.2578 0.91016-4.7422 1.6641-0.93359-1.3086-2.0664-2.4844-3.2617-3.5273zm-15.207 60.762c-4.0312 2.7266-7.5586 6.918-10.465 12.523-0.46875 0.86328-0.66406 1.3281-0.57422 1.707 0.10938 0.37891 0.53125 0.6875 1.3516 1.1992 5.3203 3.4141 10.465 5.2734 15.316 5.6094-0.10938-1.5977-0.066406-3.2148 0.19922-4.7891-1.5977-0.53125-3.1055-1.2852-4.5234-2.1953-0.99609-0.64453-1.75-1.3516-2.0859-2.5703-0.3125-1.1953-0.019531-2.1953 0.53125-3.2578 0.75391-1.4844 1.6836-2.9023 2.8164-4.168-1.0156-1.2188-1.8594-2.6172-2.5664-4.0586zm2.9258 11.527c2.0195 1.2852 4.3008 2.2617 6.6719 2.4609-0.93359 2.1719-1.1523 4.6328-0.95312 7.0039 0.089844 1.1094 0.33203 1.332 1.4414 1.3555 6.8047 0.066407 11.641-3.5039 13.234-10.062l19.84-5.2969c3.457-0.93359 5.4961-4.7422 4.5-8.4688-0.99609-3.7266-4.6562-6.0078-8.1367-5.0742l-19.82 5.2969c-4.6523-4.8555-10.641-5.543-16.492-2.082-0.97656 0.57422-1.0625 0.88672-0.57422 1.9062 1.0195 2.1484 2.418 4.168 4.3242 5.5859-1.9492 1.3516-3.4375 3.3477-4.5469 5.4766-0.50781 0.96875-0.41797 1.3008 0.51172 1.8984zm59.477-48.434c4.8555 0.33203 10.02 2.2188 15.316 5.6094 0.84375 0.53125 1.2656 0.82031 1.3516 1.1953 0.10938 0.37891-0.10938 0.84375-0.57422 1.7305-2.8828 5.5898-6.4062 9.8008-10.465 12.504-0.6875-1.4414-1.5273-2.8125-2.5508-4.0586 1.1055-1.2422 2.0391-2.6836 2.8164-4.168 0.55469-1.0391 0.83984-2.0391 0.50781-3.2578-0.30859-1.1953-1.0625-1.9062-2.082-2.5508-1.3984-0.90625-2.9258-1.6836-4.5234-2.1914 0.26953-1.5977 0.3125-3.2188 0.20312-4.8125zm3.2344 11.438c-1.1055 2.1289-2.5938 4.1211-4.543 5.4766 1.8867 1.3945 3.2773 3.4375 4.3203 5.5859 0.46875 1.0195 0.37891 1.3086-0.57422 1.8828-5.8555 3.4805-11.84 2.793-16.492-2.0859l-19.844 5.3203c-3.457 0.92969-7.1367-1.3516-8.1367-5.0742-0.99609-3.7266 1.043-7.5352 4.5234-8.4688l19.816-5.3203c1.5977-6.5391 6.4297-10.129 13.234-10.039 1.1328 0 1.3516 0.22266 1.4375 1.3516 0.19922 2.3711 0 4.832-0.92969 7.0078 2.3516 0.17578 4.6328 1.1758 6.6484 2.4609 0.9375 0.59375 1.0273 0.92578 0.53906 1.9023zm-40.078-29.508c0.73047 2.3047 1.0859 4.7422 0.66406 7.0938 2.3242-0.35547 4.7656 0.089844 7.0039 0.88672 1.0625 0.37891 1.2188 0.66406 0.93359 1.75-1.6875 6.5859-6.4062 10.328-13.121 10.176l-10.266 17.777c-1.8164 3.125-6.0078 4.1016-9.3555 2.1719-3.3242-1.9297-4.5898-6.0508-2.793-9.1797l10.266-17.777c-3.5039-5.7656-2.6133-11.703 2.2617-16.473 0.80078-0.77344 1.1094-0.79688 1.9766-0.066406 1.7969 1.5508 3.4141 3.4375 4.2773 5.6289 1.7969-1.5508 4.1016-2.4609 6.4492-2.9727 1.0859-0.23438 1.3711-0.054688 1.7031 0.98438zm86.355 22.457c0 2.5508 2.2852 4.4336 4.7422 4.4336 2.4609 0 4.7422-1.8828 4.7422-4.4336v-6.5625h-9.4414c0 2.1758-0.042969 4.3477-0.042969 6.5625zm22.363-27.176h-8.8438c-2.1953 0-3.9883 1.8164-3.9883 4.0117v13.59h63.996v-13.59c0-2.1953-1.8164-4.0117-4.0117-4.0117h-8.8438c-3.5703-4.7227-10.797-7.9805-19.152-8.1367-8.3594 0.15625-15.562 3.4141-19.156 8.1367zm27.668 2.4141h0.22266c1.9961 0 3.6367 1.6172 3.6367 3.6133v2.3945c0 1.9961-1.6406 3.6133-3.6367 3.6133h-0.39844c-0.51172 1.5977-2.0195 2.7031-3.7227 2.7031h-9.2227c-2.1484 0-3.9023-1.7539-3.9023-3.9023v-8.2891c0-1.0859 0.88672-1.9727 1.9727-1.9727h13.078c1.0391 0.003907 1.9062 0.82031 1.9727 1.8398zm-11.816 2.6172v-1.4648h-2.2188v7.2695c0 0.48828 0.42188 0.90625 0.91016 0.90625h9.2227c0.51172 0 0.92969-0.42188 0.92969-0.90625v-7.2695h-5.8516v1.4648l0.73047 0.53125c0.42188 0.28906 0.66406 0.77344 0.64453 1.2852v2.7695c0 0.84375-0.6875 1.5312-1.5273 1.5312h-2.6836c-0.84375 0-1.5312-0.6875-1.5312-1.5312v-2.793c-0.023437-0.51172 0.22266-0.97656 0.64453-1.2656zm11.836 4.0117h0.19922c0.35547 0 0.64453-0.28516 0.64453-0.62109v-2.3945c0-0.33203-0.28906-0.62109-0.64453-0.62109h-0.19922zm32.609 24.895v36.73h-46.773v-27.066c0-2.1953-1.7969-4.0156-4.0117-4.0156h-18.375c-2.1953 0-4.0117 1.8164-4.0117 4.0156v27.066h-7.9141v-36.73c0.97656 0.44531 2.0391 0.66406 3.1719 0.66406 2.4375 0 4.7422-1.1055 6.2305-3.0586 1.418 1.8633 3.6797 3.0586 6.2305 3.0586 2.4375 0 4.7422-1.1055 6.2305-3.0586 1.3945 1.8633 3.6797 3.0586 6.2305 3.0586 2.4375 0 4.7422-1.1055 6.2305-3.0586 1.3945 1.8633 3.6797 3.0586 6.2305 3.0586 2.4375 0 4.7422-1.1055 6.2305-3.0586 1.3945 1.8633 3.6797 3.0586 6.2305 3.0586 2.418 0 4.7422-1.1055 6.207-3.0586 1.418 1.8633 3.6797 3.0586 6.2305 3.0586 2.4375 0 4.7656-1.1055 6.2305-3.0586 1.418 1.8633 3.6797 3.0586 6.2305 3.0586 1.0898 0 2.1523-0.21875 3.1719-0.66406zm2.3711 39.727c1.1953 0 2.1484 0.97656 2.1484 2.1484v4.0586c0 1.1758-0.95312 2.1484-2.1484 2.1484h-85.855c-1.1758 0-2.1484-0.97656-2.1484-2.1484v-4.0586c0-1.1758 0.97656-2.1484 2.1484-2.1484h85.855zm-72.531-2.9961v-27.066c0-0.55469 0.44141-0.99609 0.99609-0.99609h18.375c0.55469 0 1.0195 0.44141 1.0195 0.99609v27.066zm31.367-31.078c-2.1953 0-3.9883 1.8164-3.9883 4.0156v18.375c0 2.2188 1.7969 4.0117 3.9883 4.0117h26.844c2.2148 0 4.0117-1.7969 4.0117-4.0117v-18.375c0-2.1953-1.7969-4.0156-4.0117-4.0156zm0 23.387c-0.53125 0-0.99609-0.44141-0.99609-0.99609v-18.375c0-0.55469 0.46484-0.99609 0.99609-0.99609h26.844c0.55469 0 1.0195 0.44141 1.0195 0.99609v18.375c0 0.55469-0.46484 0.99609-1.0195 0.99609zm-31.41-42.359v6.5625c0 2.5508 2.2852 4.4336 4.7422 4.4336 2.4609 0 4.7422-1.8828 4.7422-4.4336v-6.5625zm12.457 0v6.5625c0 2.5508 2.2852 4.4336 4.7422 4.4336 2.4609 0 4.7422-1.8828 4.7422-4.4336v-6.5625zm12.457 0v6.5625c0 2.5508 2.2812 4.4336 4.7422 4.4336 2.4375 0 4.7422-1.8828 4.7422-4.4336v-6.5625zm12.461 0v6.5625c0 2.5508 2.2812 4.4336 4.7422 4.4336 2.4375 0 4.7227-1.8828 4.7227-4.4336v-6.5625zm12.457 0v6.5625c0 2.5508 2.2812 4.4336 4.7227 4.4336 2.4609 0 4.7422-1.8828 4.7422-4.4336v-6.5625zm12.434 0v6.5625c0 2.5508 2.3047 4.4336 4.7422 4.4336 2.4609 0 4.7422-1.8828 4.7422-4.4336 0-2.2188-0.023437-4.3906-0.023437-6.5625zm72.648 36.68h2.9922c3.0586 0 5.5625 2.5039 5.5625 5.5859v5.2969c0 3.0586-2.5039 5.5625-5.5625 5.5625h-2.9922c-0.089844 3.3477-2.8594 6.0508-6.2305 6.0508h-15.074c-3.4141 0-6.2305-2.793-6.2305-6.2305v-18.441c0-1.0625 0.86328-1.9062 1.9062-1.9062h23.719c1.043 0 1.9062 0.84375 1.9062 1.9062zm-10.508-16.605c1.1758 1.5742 3.3477 3.8555 3.3477 5.9648 0 5.1211-6.8945 5.1211-6.8945 0 0-2.1055 2.1719-4.3906 3.3477-5.9648 0.046875-0.089844 0.15625-0.089844 0.19922 0zm26.18 6.7383c-2.1289 0.75391-4.3906 0.95312-6.7812 0.22266-6.1172-1.8828-10.109-8.7578-16.293-10.109-1.0195-0.066406-1.5742-1.3281-0.79688-2.1055l3.7461-3.7461c0.6875-0.6875 0.92969-0.53125 1.8594-0.30859 1.9961 0.44141 5.1445 1.6406 7.0508 1.5508 0.64453-0.023438 1.2656-0.17969 1.8633-0.44531 1.8828 5.5664 4.9883 10.93 9.043 14.652zm35.934-19.684c3.6367-3.8789 5.5195-6.7617 5.1445-9.9102 2.8164-26.023-18.844-28.551-25.359-17.711l-10.906 10.93 6.2734 6.2734 4.5-0.75391c0.33203-0.046874 0.77734 0.042969 1.0195 0.28906 0.042969 0.042969 0.089843 0.089844 0.13281 0.13281l6.5156 6.5195c0.51172 0.53125 0.51172 1.3945 0 1.9062l-6.207 6.207c-0.53125 0.53125-1.3984 0.53125-1.9297 0l-6.5391-6.5391c-0.3125-0.28906-0.46484-0.6875-0.375-1.1328l0.75391-4.4766-6.2969-6.2969-10.93 10.93c1.043 8.0234 4.9414 16.184 9.9961 20.836 7.293 6.6953 10.973 5.6094 17.621-0.64062 5.7031-5.3477 11.223-10.867 16.586-16.562zm2.3516-15.605c-0.51172-0.64453-1.0859-1.3281-1.7305-2.0391-4.0117-4.3672-10.66-7.8672-17.578-9.4219 0.80078-0.99609 1.8164-1.8398 3.082-2.4805 3.9219-2.0195 8.6445-1.2422 11.793 1.8164 3.125 3.0352 4.2773 7.5352 4.4336 12.125zm-41.367-8.9766c0.6875-1.5508 0.39844-3.4141-0.86328-4.6797-1.6602-1.6602-4.3203-1.6602-5.9648 0-1.6406 1.6406-1.6406 4.3008 0 5.9414 1.2656 1.2617 3.1484 1.5508 4.6797 0.86328l1.2656 1.2656c-3.2148 3.5234-4.5664 8.3789-4.5664 13.543l20.238-20.238c-5.1641 0-10.02 1.3516-13.543 4.5469zm18.266 16.535-3.3242 0.55469-0.55469 3.3047 4.7891 4.7891 3.8555-3.8789zm-30.855 51.051h2.9922c1.3945 0 2.5703-1.1758 2.5703-2.5703v-5.2969c0-1.418-1.1758-2.5703-2.5703-2.5703h-2.9922zm156.38-32.535c-0.86328-5.2969-3.082-10.133-6.3164-14.145 0.35547 0.46484-47.129 0-47.129 0-2.6406 3.2578-4.6094 7.0938-5.7188 11.262 2.9023-0.44531 5.8945-0.35547 8.7773-0.10938 5.6094 0.51172 11.262 1.707 16.805 2.6836 11.5 1.9961 22.43 3.082 33.582 0.30859zm23.43 5.7461c0 3.3047-2.7031 6.0078-5.9844 6.0078-3.3047 0-6.0078-2.7031-6.0078-6.0078v-24.605l-12.746-0.003906v-3.7031c0-0.26562-0.023438-0.53125-0.066406-0.82031l2.7695-7.4922h11.086c6.0273 0 10.949 4.9219 10.949 10.949v25.676zm-27.953-29.262 3.6367-9.8203c0.42188-1.3281 0-2.8828-2.1719-2.8398h-43.004l-18.777-4.5c-1.375-0.33203-2.4141 1.1953-1.5977 2.3281l11.016 15.52-0.019531 6.4062c-4.832 5.7852-7.7344 13.211-7.7344 21.324 0 8.8008 3.4375 16.824 9.0195 22.766-0.75391 0.37891-1.2852 1.1758-1.2852 2.0625v6.1406c0 1.2852 1.043 2.3047 2.3047 2.3047h46.508c1.2656 0 2.3047-1.0195 2.3047-2.3047v-6.1406c0-0.88672-0.53125-1.6836-1.2852-2.0625 5.5859-5.9414 9-13.965 9-22.766 0-8.1133-2.8828-15.539-7.7148-21.324v-6.1406c0-0.33594-0.066407-0.66406-0.19922-0.95313zm79.445 9.6875c-2.8828-5.5195-4.168-12.348-4.2773-18.512-0.066407-2.6602 0.82031-4.7656 3.4141-6.1641 5.7188-3.0586 15.34-3.0586 21.082 0 2.5703 1.3984 3.457 3.5039 3.4141 6.1641-0.13281 6.1641-1.418 12.988-4.3008 18.512-1.0859 2.0625-1.7734 3.6797-4.4336 3.5469-3.3047-0.15625-7.1406-0.15625-10.441 0-2.6836 0.13281-3.3711-1.4844-4.457-3.5469zm27.551 39.879c-2.9023-5.5195-4.168-12.324-4.3008-18.512-0.066406-2.6602 0.82031-4.7656 3.4141-6.1641 5.7422-3.0586 15.34-3.0586 21.082 0 2.5938 1.3984 3.4805 3.5039 3.4141 6.1641-0.13281 6.1875-1.3945 12.988-4.3008 18.512-1.0859 2.0625-1.75 3.6797-4.4336 3.5469-3.3047-0.15625-7.1367-0.15625-10.441 0-2.6797 0.13281-3.3438-1.4844-4.4336-3.5469zm29.551 7.3828c1.0859 0.99609 2.1719 2.0195 3.1484 3.0156 3.5703 3.6562 8.5352 1.3281 8.2461-3.2812-0.28906-4.9453-1.0625-8.5586-3.0352-11.684-0.99609 2.4141-2.3945 4.7422-3.6133 7.0078-1.1562 2.1484-2.8164 3.832-4.7461 4.9414zm-2.9727-27.047c2.9023 0.82031 5.4336 2.1953 7.6055 4.1914 2.3516 2.1055 2.3711 5.7188 1.375 8.6016-0.82031 2.4609-2.5703 5.3867-3.9023 7.8906-2.3086 4.2773-7.2266 6.1836-11.66 3.9258-0.089844-0.042969-0.17969-0.089843-0.26563-0.13281 0.99609-0.97656 1.5977-2.1719 2.2383-3.4141 3.125-5.9414 4.5-13.168 4.6562-19.84 0-0.42187-0.023438-0.82422-0.046875-1.2227zm-36.816 27.047c-1.0859 0.99609-2.1719 2.0195-3.1484 3.0156-3.5664 3.6562-8.5352 1.3281-8.2461-3.2812 0.28906-4.9453 1.0625-8.5586 3.0352-11.684 0.99609 2.4141 2.3945 4.7422 3.6133 7.0078 1.1523 2.1484 2.8164 3.832 4.7461 4.9414zm2.9688-27.047c-2.9023 0.82031-5.4297 2.1953-7.6055 4.1914-2.3477 2.1055-2.3711 5.7188-1.375 8.6016 0.82031 2.4609 2.5703 5.3867 3.9023 7.8906 2.3047 4.2773 7.2266 6.1836 11.66 3.9258 0.089844-0.042969 0.17969-0.089843 0.26562-0.13281-0.99609-0.97656-1.5977-2.1719-2.2383-3.4141-3.125-5.9414-4.5-13.168-4.6562-19.84 0.003906-0.42187 0.023437-0.82422 0.046874-1.2227zm9.2891-12.832c1.0859 0.99609 2.1719 2.0156 3.125 3.0156 3.5898 3.6562 8.5352 1.3281 8.2695-3.2812-0.28906-4.9414-1.0625-8.5781-3.0352-11.684-0.99609 2.418-2.4141 4.7422-3.6133 7.0039-1.1562 2.1523-2.8203 3.8125-4.7461 4.9453zm-2.9688-27.047c2.8828 0.82031 5.4297 2.1914 7.6016 4.168 2.3281 2.1289 2.3516 5.7422 1.375 8.6211-0.82031 2.4375-2.5703 5.3867-3.9258 7.8906-2.2812 4.2773-7.2031 6.1836-11.637 3.9258-0.089844-0.046875-0.17578-0.089844-0.26563-0.15625 0.99609-0.95312 1.5977-2.1484 2.2383-3.3945 3.1055-5.9375 4.5-13.188 4.6328-19.84 0.023438-0.41406 0-0.8125-0.019531-1.2148zm-36.844 27.047c-1.0859 0.99609-2.1484 2.0156-3.125 3.0156-3.5898 3.6562-8.5352 1.3281-8.2695-3.2812 0.28906-4.9414 1.0859-8.5781 3.0586-11.684 0.99609 2.418 2.3945 4.7422 3.6133 7.0039 1.1523 2.1523 2.793 3.8125 4.7227 4.9453zm2.9922-27.047c-2.9023 0.82031-5.4297 2.1914-7.625 4.168-2.3281 2.1289-2.3516 5.7422-1.375 8.6211 0.84375 2.4375 2.5703 5.3867 3.9258 7.8906 2.3047 4.2773 7.2266 6.1836 11.637 3.9258 0.089844-0.046875 0.17578-0.089844 0.28906-0.15625-1.0195-0.95312-1.5977-2.1484-2.2617-3.3945-3.1055-5.9375-4.5-13.188-4.6328-19.84-0.003906-0.41406-0.003906-0.8125 0.042968-1.2148zm-593.07 129.66h26.867l3.3477-11.086c1.9727-6.5625 4.1016-11.438 11.727-11.438h6.6055c0.82031 0 1.5078 0.66406 1.5078 1.5078 0 0.82031-0.6875 1.4844-1.5078 1.4844h-6.6055c-6.0977 0-7.3359 4.2344-8.8672 9.332l-3.082 10.199h17.512c0.99609 0 1.8164 0.82031 1.8164 1.8164v9.1133c4.4531 3.7695 8.0039 8.4883 10.238 13.832h-71.621c2.2383-5.3438 5.7852-10.062 10.242-13.832v-9.1133c0.003907-0.99609 0.82422-1.8164 1.8203-1.8164zm48.57 47.105 6.5859-6.5625c1.0195-1.0391 1.0195-2.7031 0-3.7461l-6.5859-6.5625c-1.0195-1.0195-2.7031-1.0195-3.7227 0l-6.5625 6.5625c-1.0195 1.0391-1.0195 2.7031 0 3.7461l6.5625 6.5625c1.0156 1.0195 2.7031 1.0195 3.7227 0zm-1.8633-2.3945 6.0508-6.0547-6.0508-6.0508-6.0508 6.0508zm-44.066 2.3945 6.582-6.5625c1.0195-1.0391 1.0195-2.7031 0-3.7461l-6.582-6.5625c-1.0195-1.0195-2.7031-1.0195-3.7266 0l-6.5625 6.5625c-1.043 1.0391-1.043 2.7031 0 3.7461l6.5625 6.5625c1.0195 1.0195 2.7031 1.0195 3.7266 0zm-1.8633-2.3945 6.0508-6.0547-6.0508-6.0508-6.0508 6.0508zm24.848 2.3945 6.5625-6.5625c1.0195-1.0391 1.0195-2.7031 0-3.7461l-6.5625-6.5625c-1.043-1.0195-2.7031-1.0195-3.7461 0l-6.5625 6.5625c-1.0195 1.0391-1.0195 2.7031 0 3.7461l6.5625 6.5625c1.043 1.0195 2.707 1.0195 3.7461 0zm-1.8828-2.3945 6.0742-6.0547-6.0742-6.0508-6.0547 6.0508zm36.91-16.957c1.043 3.2812 1.5977 6.7617 1.5977 10.375 0 3.9883-0.6875 7.8477-1.9492 11.461h-73.086c-1.2656-3.6133-1.9492-7.4727-1.9492-11.461 0-3.6133 0.55469-7.0938 1.5977-10.375zm-1.5742 24.824c-2.6836 5.8516-6.9375 10.906-12.281 14.676-0.26562 0.22266-0.62109 0.375-0.99609 0.375h-44.09c-0.37891 0-0.73047-0.15234-0.99609-0.375-5.3438-3.7695-9.5977-8.8242-12.281-14.676zm108.39-29.637c-2.0195 13.168-4.0586 26.336-6.0977 39.504-0.42188 2.8125-2.3281 5.1875-5.1641 5.1875h-23.41c0.46484 0 0.92969-0.066406 1.5508-0.17578 4.5898-0.79688 9.043-2.7266 11.793-6.6719 2.9922-4.2578 3.1484-9.7539 1.9727-14.652-0.023438-0.15625-0.066407-0.26562-0.089844-0.35547 0.77734-0.97266 1.1992-2.2617 1.1992-3.5469v-12.258h14.121l1.0859-6.9609h-18.199v19.219c0 1.1953-0.66406 2.1484-1.4844 2.1484h-2.0625c-0.82031 0-1.4844-0.95312-1.4844-2.1484v-19.219h-18.113l1.0625 6.9609h14.055v12.258c0 1.9492 0.97656 3.9023 2.6602 4.7422-2.7266 1.1094-5.1641 2.793-6.8945 5.3008l-0.75391 1.0625-0.50781-1.0859c-0.37891-0.84375-0.84375-1.6172-1.375-2.3711-2.0156-2.9258-4.8984-4.8555-8.0898-6.1406l-3.1914-20.793c-1.9961-0.30859-3.5234-2.0391-3.5234-4.1016s1.5508-3.8359 3.5898-4.1016c1.9961-11.129 11.816-19.574 23.629-19.574 11.84 0 21.656 8.4453 23.629 19.574 2.0391 0.26562 3.6133 2.0195 3.6133 4.1016 0.003906 2.0352-1.5039 3.7891-3.5195 4.0977zm-21.238-24.625v16.383h18.09c-1.7969-8.668-9.0703-15.344-18.09-16.383zm-5.0312 0c-8.9766 1.0859-16.203 7.7617-18 16.383h18v-16.383zm-6.6523 66.078-0.089843-0.77344c-0.35547-3.3242 0-6.8281 1.9492-9.6445 1.9727-2.8125 5.1211-4.3438 8.3789-5.1445l0.77734-0.17578 0.089843 0.77344c0.35547 3.3242 0 6.8516-1.9492 9.6445-1.9727 2.8164-5.1211 4.3477-8.3789 5.1211zm-16.98-19.195 0.71094 0.15625c4.1211 0.88672 8.1367 2.7031 10.617 6.25 2.4609 3.5234 2.793 7.957 2.2188 12.078l-0.10938 0.73047-0.71094-0.15625c-4.1211-0.88672-8.1367-2.7031-10.617-6.2305-2.4375-3.5234-2.793-7.957-2.2188-12.102zm23.633-65.57v12.656c0.84375-0.089844 1.707-0.10938 2.5508-0.10938s1.6641 0.023437 2.4844 0.10938v-12.656c0-1.1758-0.66406-2.1484-1.4844-2.1484h-2.0625c-0.82422-0.003906-1.4883 0.97266-1.4883 2.1484zm12.855 59.852c-0.82031 0-1.5078-0.66406-1.5078-1.5078 0-0.82031 0.6875-1.4844 1.5078-1.4844s1.5078 0.66406 1.5078 1.4844c0 0.84375-0.6875 1.5078-1.5078 1.5078zm-1.4844 20.879c-0.82031 0-1.4844-0.66406-1.4844-1.5078 0-0.82031 0.66406-1.4844 1.4844-1.4844 0.84375 0 1.5078 0.66406 1.5078 1.4844 0 0.84375-0.66797 1.5078-1.5078 1.5078zm-18.797-12.211c-0.82031 0-1.5078-0.66406-1.5078-1.5078 0-0.82031 0.6875-1.5078 1.5078-1.5078 0.84375 0 1.5078 0.6875 1.5078 1.5078-0.003907 0.84375-0.66797 1.5078-1.5078 1.5078zm-1-4.3906c2.1484 0 3.9023-1.75 3.9023-3.9219 0-2.1523-1.75-3.9023-3.9023-3.9023-2.1719 0-3.9219 1.75-3.9219 3.9023 0 2.1719 1.75 3.9219 3.9219 3.9219zm0-4.832c0.48828 0 0.91016 0.42188 0.91016 0.91016 0 0.50781-0.42188 0.90625-0.91016 0.90625-0.51172 0-0.90625-0.39844-0.90625-0.90625 0-0.49219 0.39844-0.91016 0.90625-0.91016zm21.391 10.887c2.1719 0 3.9219-1.7539 3.9219-3.9023 0-2.1719-1.75-3.9258-3.9219-3.9258-2.1523 0-3.9023 1.75-3.9023 3.9258 0.003906 2.1484 1.7539 3.9023 3.9023 3.9023zm0-4.8125c0.50781 0 0.91016 0.39844 0.91016 0.91016 0 0.48828-0.39844 0.90625-0.91016 0.90625-0.48828 0-0.91016-0.42188-0.91016-0.90625 0.003906-0.51172 0.42578-0.91016 0.91016-0.91016zm140.77-36.109-6.6484 53.559c-0.35547 2.8359-2.3281 5.1875-5.1875 5.1875h-35.777c-0.28906 0-0.55469-0.023437-0.84375-0.066406 0.28516-0.042969 0.62109-0.089844 0.99609-0.17969 5.3867-0.95313 10.617-3.1914 13.855-7.8047 3.5039-5.0117 3.6562-11.414 2.2812-17.156-0.15625-0.66406-0.046875-0.77734-0.93359-0.66406-5.875 0.79687-11.836 2.9922-15.359 8.0469l-1.1523 1.6602-0.82031-1.7305c-0.46875-0.97656-0.99609-1.8828-1.6172-2.7695-1.1328-1.6406-2.5078-3.0156-4.0117-4.168l-4.2109-33.914h33.961v6.5195l-3.5938 2.5273c-1.2188 0.88672-1.9297 2.2812-1.9062 3.7891v11.262c0 2.5508 2.1055 4.6328 4.6562 4.6328h10.707c2.5508 0 4.6523-2.0859 4.6523-4.6328v-11.152c0.066407-1.5508-0.64453-2.9922-1.9062-3.9023l-3.5938-2.5273v-6.5195zm-45.176 42.625c2.7695-3.9688 6.8711-5.4336 11.352-6.5195 0.50781 4.5898 0.55469 8.9336-2.2188 12.879-2.7891 3.9922-6.8711 5.4336-11.352 6.5195-0.51172-4.5664-0.55469-8.9336 2.2188-12.879zm-5.9414 12.902c-5.4531-1.1758-10.555-2.9688-13.922-7.7578-3.3477-4.8125-3.2812-10.219-2.5273-15.762 5.4766 1.1758 10.574 2.9922 13.922 7.7812s3.3047 10.219 2.5273 15.738zm-0.48828-86.941h43.777c2.4844 0 4.5 2.0156 4.5 4.5v3.5898h-52.777v-3.5898c0-2.4844 2.0195-4.5 4.5-4.5zm-8.957 11.105h61.691c2.4609 0 4.5 2.0156 4.5 4.5v8.3125c0 2.4609-2.0391 4.4766-4.5 4.4766h-20.57v11.062l4.8555 3.457c0.44141 0.33203 0.66406 0.82031 0.62109 1.3516v11.238c0 0.91016-0.73047 1.6406-1.6406 1.6406h-10.707c-0.90625 0-1.6406-0.73047-1.6406-1.6406v-11.305c-0.019531-0.51172 0.19922-0.99609 0.61719-1.2852l4.8555-3.457v-11.062h-38.086c-2.4609 0-4.4961-2.0195-4.4961-4.4766v-8.3125c0-2.4805 2.0391-4.5 4.5-4.5zm251.39 79.051c-5.8281 0-8.2695-3.1484-9.7773-8.6016-2.2617-8.2695-5.1406-16.758-7.1133-24.98-1.0859-4.5898-1.3516-10.684-0.39844-16.625 3.6133-0.042969 7.2031-1.6406 9.332-4.6328 0.71094-0.99609 1.0625-1.1758 2.3086-1.1758 1.2656 0 1.5977 0.17578 2.3242 1.1758 2.1484 3.0391 5.8281 4.6328 9.5117 4.6328 3.6562 0 7.3398-1.5938 9.4883-4.6328 0.73047-0.99609 1.0625-1.1758 2.3281-1.1758 1.2383 0 1.5977 0.17578 2.3047 1.1758 2.1484 3.0391 5.832 4.6328 9.5117 4.6328 3.6562 0 7.3594-1.5938 9.5117-4.6328 0.71094-0.99609 1.0625-1.1758 2.3086-1.1758 1.2422 0 1.5977 0.17578 2.3047 1.1758 2.1289 2.9922 5.7188 4.5898 9.332 4.6328 0.95313 5.9414 0.71094 12.035-0.39844 16.625-1.9766 8.2266-4.8555 16.715-7.1133 24.98-1.4844 5.4531-3.9258 8.6016-9.7773 8.6016zm42.453-76.102v2.5703c7.7812 1.4844 13.699 8.3555 13.699 16.535 0 2.6602 0.46484 3.7891-2.7031 3.7891-2.9922 0-5.6328-1.3516-7.0508-3.3672-1.2188-1.7305-2.3945-2.4375-4.7656-2.4375-2.3711 0-3.5469 0.71094-4.7695 2.4375-1.418 2.0156-4.0586 3.3672-7.0508 3.3672-3.0156 0-5.6328-1.3516-7.0703-3.3672-1.2188-1.7305-2.3945-2.4375-4.7422-2.4375-2.3711 0-3.5469 0.71094-4.7656 2.4375-1.4414 2.0156-4.0586 3.3672-7.0508 3.3672-3.0156 0-5.6328-1.3516-7.0703-3.3672-1.2188-1.7305-2.3945-2.4375-4.7656-2.4375-2.3516 0-3.5234 0.71094-4.7422 2.4375-1.4414 2.0156-4.0586 3.3672-7.0703 3.3672-3.1719 0-2.7031-1.1289-2.7031-3.7891 0-8.1797 5.9219-15.051 13.699-16.535v-2.5703zm-50.766-14.055h52.602c1.6641 0 3.0391 1.2188 3.0391 2.7266v5.5859c0 1.5078-1.375 2.75-3.0391 2.75h-52.602c-1.6641 0-3.0156-1.2422-3.0156-2.75v-5.5859c0-1.5078 1.3516-2.7266 3.0156-2.7266zm26.312 84.234c12.191 0 22.078-9.8867 22.078-22.102 0-12.191-9.8867-22.078-22.078-22.078-12.215 0-22.102 9.8867-22.102 22.078 0 12.215 9.8867 22.102 22.102 22.102zm0-41.117c10.508 0 19.02 8.5117 19.02 19.02 0 10.531-8.5117 19.043-19.02 19.043-10.527 0-19.039-8.5117-19.039-19.043 0-10.508 8.5078-19.02 19.039-19.02zm1.3047 17.137 0.13281-0.19922c2.2617-3.2578 6.0977-4.6992 9.9102-5.2109 0.82031-0.11328 1.043 0.066406 1.2422 0.84375 0.88672 3.7227 0.73047 7.8906-1.5078 11.129-2.1055 2.9727-5.4766 4.4531-8.957 5.0547-1.0195 0.19922-1.6836 0.17578-2.7031-0.023438-3.9883-0.71094-7.8711-2.3945-10.285-5.8086-2.5703-3.6992-2.5938-8.4258-1.7305-12.68 0.19922-0.99609 0.48828-1.1758 1.4844-1.0195 4.3203 0.61719 8.7109 2.2383 11.305 5.9648 0.39844 0.57422 0.75391 1.1758 1.0391 1.8164zm1.2656 8.4414 0.10938-0.019532c2.2812-0.57422 4.5234-1.6406 5.8945-3.6133 1.375-1.9727 1.6172-4.457 1.3516-6.7812v-0.10938l-0.089844 0.019531c-2.3047 0.55469-4.5469 1.6172-5.9219 3.6133-0.95312 1.3516-1.3711 2.9258-1.4375 4.5664v0.019531 0.51172h-0.019531c0 0.57422 0.046875 1.1289 0.10938 1.6836zm-12.477-13.078-0.023438 0.089844c-0.39844 2.9258-0.17969 6.0977 1.5742 8.5781 1.7539 2.5273 4.6094 3.793 7.5156 4.4336l0.089844 0.023437 0.019531-0.10937c0.089844-0.57422 0.13672-1.1758 0.15625-1.7734 0-0.19922 0.019531-0.375 0.019531-0.55469v-0.023437c0-2.2188-0.46484-4.3906-1.7305-6.2305-1.7734-2.5039-4.6328-3.793-7.5352-4.4102zm144.26-38.379c1.9062-3.082 1.8867-5.4336 0.53125-8.6211-1.0391-2.5039-1.4375-3.793 0.15625-6.3203 1.0625-1.793-1.6406-3.3672-2.6602-1.5938-1.9297 3.082-1.9062 5.4297-0.55469 8.6211 1.0391 2.5039 1.4414 3.7891-0.13281 6.3164-1.1055 1.7969 1.6445 3.3711 2.6602 1.5977zm-36.551 70.824c7.7344 4.4766 17.645 1.8164 22.121-5.9414 4.4766-7.7344 1.8164-17.645-5.9219-22.121-7.7578-4.4805-17.668-1.8164-22.145 5.9414-4.4727 7.7344-1.8125 17.645 5.9453 22.121zm-0.51172-14.695c-0.73047-0.42187-1.6602-0.17578-2.1055 0.55469-0.42187 0.73047-0.15234 1.6602 0.57422 2.082 0.73047 0.42188 1.6641 0.17578 2.0859-0.55469 0.42188-0.73047 0.17578-1.6602-0.55469-2.082zm8.1133 5.6953c-0.73047-0.42188-1.6875-0.17969-2.1055 0.55469-0.42188 0.73047-0.15234 1.6602 0.57422 2.0859 0.73047 0.42188 1.6641 0.17969 2.0859-0.55469 0.42188-0.73047 0.17578-1.6641-0.55469-2.0859zm8.3555-1.3086c-0.73047-0.42188-1.6836-0.17578-2.1055 0.55469-0.42187 0.73047-0.15625 1.6641 0.57422 2.0859s1.6602 0.17969 2.0859-0.55469c0.42188-0.73438 0.17969-1.6641-0.55469-2.0859zm0-11.238c-0.73047-0.42188-1.6602-0.17969-2.0859 0.55469-0.42188 0.73047-0.17969 1.6641 0.55469 2.0859s1.6875 0.17969 2.1055-0.55469c0.42578-0.73438 0.16016-1.6641-0.57422-2.0859zm-7.0898 6.1836c-0.73047-0.42188-1.6641-0.15625-2.0859 0.57422-0.42188 0.73047-0.17969 1.6641 0.55469 2.0859 0.73047 0.42188 1.6602 0.17969 2.0859-0.55469 0.42188-0.73047 0.17578-1.6797-0.55469-2.1055zm-0.48828-6.5352c-0.73047-0.42188-1.6641-0.17578-2.0859 0.55469s-0.17578 1.6602 0.55469 2.082c0.73047 0.42188 1.6641 0.17969 2.0859-0.55469 0.44141-0.73047 0.17578-1.6602-0.55469-2.082zm-22.344 13.832c1.4414 0.83984 2.9453 1.418 4.5 1.7734-2.3711-5.4102-2.2383-11.84 0.93359-17.336 3.1719-5.4961 8.668-8.8438 14.539-9.4844-1.0625-1.1523-2.3242-2.1719-3.7695-3.0156-7.7617-4.4531-17.668-1.8164-22.121 5.9414-4.4805 7.7578-1.8203 17.664 5.918 22.121zm-0.51172-14.699c-0.73047-0.42188-1.6602-0.17578-2.0859 0.55469-0.42188 0.73047-0.17578 1.6836 0.55469 2.1055 0.73047 0.42188 1.6602 0.15234 2.0859-0.57422 0.42188-0.73438 0.17578-1.6641-0.55469-2.0859zm8.0234-8.668c-0.73047-0.42188-1.6641-0.17969-2.0859 0.55469-0.42188 0.73047-0.17969 1.6602 0.55469 2.1055 0.73047 0.42187 1.6602 0.15234 2.0859-0.57813 0.42188-0.73047 0.17969-1.6602-0.55469-2.082zm34.582-39.391c1.9297-3.082 1.9062-5.4336 0.55469-8.6211-1.0391-2.5039-1.4375-3.793 0.13672-6.3203 1.0859-1.793-1.6445-3.3672-2.6602-1.5938-1.9062 3.082-1.8867 5.4297-0.53125 8.6211 1.0391 2.5039 1.4414 3.7891-0.15625 6.3164-1.0898 1.7969 1.6367 3.3711 2.6562 1.5977zm-8.4023 0c1.9062-3.082 1.8867-5.4336 0.55469-8.6211-1.0391-2.5039-1.4648-3.793 0.13672-6.3203 1.0625-1.7734-1.6172-3.3906-2.6602-1.5938-1.9062 3.082-1.8828 5.4297-0.55469 8.6211 1.0625 2.5039 1.4648 3.7891-0.13281 6.3164-1.0859 1.7969 1.6367 3.3711 2.6562 1.5977zm-7.8477 23.539 3.9883-2.8359 4.0117 2.8359v9.1992h-8.0039zm40.922-6.4453h3.6133c2.2188 0 4.0117 1.8164 4.0117 4.0352v9.5312c0 2.1914-1.7969 4.0117-4.0117 4.0117h-3.6133v2.9922h3.6133c3.8555 0 7.0234-3.1484 7.0234-7.0039v-9.5312c0-3.8789-3.1719-7.0273-7.0234-7.0273h-3.6133zm0 14.562h3.6133c0.55469 0 1.0195-0.44141 1.0195-0.99609v-9.5312c0-0.57422-0.46484-1.0195-1.0195-1.0195h-3.6133zm0-20.551h3.6133c5.5195 0 10.02 4.5 10.02 10.02v9.5312c0 5.4961-4.5 10.02-10.02 10.02h-3.6133c-0.17578 6.0078-5.1445 10.863-11.191 10.863h-15.055c-1.3086-4.6328-4.3633-8.7773-8.8438-11.371-2.5039-1.4414-5.1875-2.2617-7.8672-2.5039-1.5742-2.2188-3.6133-4.1211-6.0977-5.5625-0.73047-0.42188-1.4844-0.79688-2.2617-1.1094v-23.828c0-1.8867 1.5508-3.4141 3.4375-3.4141h9.4414v14.301l-4.8555 3.457c-0.44141 0.30859-0.64453 0.77344-0.62109 1.2852v11.305c0 0.90625 0.73047 1.6406 1.6406 1.6406h10.707c0.90625 0 1.6406-0.73047 1.6406-1.6406v-11.238c0.046875-0.53125-0.17578-1.0195-0.61719-1.3516l-4.8555-3.457v-14.301h31.988c1.8867 0 3.4102 1.5273 3.4102 3.4141zm-387.15-347.51c0.33203-4.1445 2.6133-8.1797 6.7383-11.926 0.46875-0.44141 0.71094-0.64453 0.97656-0.64453 0.24219 0 0.48828 0.19922 0.95312 0.64453 4.1211 3.7461 6.4062 7.7812 6.7383 11.926 3.1719-2.6836 7.6445-3.9258 13.211-3.6797 0.62109 0.023437 0.95312 0.066406 1.1328 0.24219 0.17969 0.17969 0.19922 0.51172 0.22266 1.1328 0.26562 5.5625-0.97656 10.043-3.6562 13.188 4.1211 0.35547 8.1797 2.6406 11.926 6.7383 0.42188 0.46484 0.64453 0.73047 0.64453 0.97656 0 0.24609-0.22266 0.51172-0.64453 0.97656-3.7461 4.1016-7.8047 6.3867-11.926 6.7383 2.6836 3.1484 3.9258 7.625 3.6562 13.191-0.023438 0.64453-0.046875 0.95313-0.22266 1.1289-0.17578 0.17578-0.51172 0.22266-1.1328 0.24219-5.5625 0.24219-10.039-0.99609-13.211-3.6797-0.33594 4.1445-2.6172 8.1797-6.7383 11.949-0.46484 0.42187-0.71094 0.62109-0.95312 0.62109-0.26562 0-0.50781-0.19922-0.97656-0.62109-4.1211-3.7695-6.4062-7.8047-6.7383-11.949-3.1719 2.6836-7.6484 3.9258-13.211 3.6797-0.62109-0.019531-0.95312-0.066406-1.1328-0.24219-0.17969-0.17969-0.19922-0.48828-0.22266-1.1289-0.26562-5.5625 0.97656-10.043 3.6562-13.191-4.1211-0.35547-8.1562-2.6367-11.93-6.7383-0.42188-0.46484-0.64453-0.73047-0.64453-0.97656 0-0.24609 0.22266-0.51172 0.64453-0.97656 3.7695-4.1016 7.8047-6.3828 11.93-6.7383-2.6836-3.1484-3.9258-7.625-3.6562-13.188 0.019531-0.62109 0.042969-0.95312 0.22266-1.1328 0.17969-0.17578 0.51172-0.22266 1.1328-0.24219 5.5625-0.24219 10.039 0.99609 13.211 3.6797zm-22.324-28.703c0.33594-4.125 2.6172-8.1797 6.7383-11.926 0.46484-0.42188 0.71094-0.64453 0.97656-0.64453 0.24219 0 0.48828 0.22266 0.95313 0.64453 4.1211 3.7461 6.4062 7.8047 6.7383 11.926 3.1719-2.6836 7.6445-3.9258 13.211-3.6797 0.62109 0.046875 0.95312 0.066406 1.1328 0.24219 0.17969 0.17578 0.19922 0.51172 0.24219 1.1328 0.24219 5.5625-0.99609 10.043-3.6797 13.211 1.5742 0.13281 3.1445 0.53125 4.6992 1.2422 0 0-1.2422-0.089844-3.9688 2.4141-0.88672 0.80078-1.7305 1.6406-2.5078 2.5508h-2.6836c-1.9727 0-1.9727 2.9922 0 2.9922h0.42188c-0.77344 1.2188-1.4414 2.4805-1.9297 3.8359-2.9922-1.375-6.2969-1.9297-9.6211-1.9492 0.93359-0.82031 1.5078-2.0391 1.5078-3.3906 0-2.5039-2.0195-4.5195-4.5234-4.5195-2.5273 0-4.543 2.0156-4.543 4.5195 0 1.9727 1.2383 3.6367 2.9922 4.2773-0.10938 0.089843-0.19922 0.17969-0.3125 0.26562-0.88672 0.90625-1.0391 1.9297-1.1055 3.125-0.15625 3.5039 0.22266 7.0508 1.4648 10.285v1.2422c-1.9297 0.77344-3.7031 1.8594-5.3633 3.1719-0.44141-1.2422-0.73047-2.5078-0.84375-3.7461-3.168 2.6602-7.6211 3.9258-13.211 3.6562-0.62109-0.023438-0.95312-0.042969-1.1328-0.22266-0.17969-0.17969-0.19922-0.51172-0.22266-1.1523-0.26562-5.5625 1-10.02 3.6602-13.188-4.1211-0.33203-8.1562-2.6172-11.93-6.7383-0.42188-0.46484-0.64453-0.71094-0.64453-0.97656 0-0.24219 0.22266-0.48828 0.64453-0.95312 3.7695-4.1211 7.8047-6.4062 11.93-6.7383-2.6602-3.1719-3.9258-7.6484-3.6602-13.211 0.023438-0.62109 0.046875-0.95312 0.22266-1.1328 0.17969-0.17969 0.51172-0.19922 1.1328-0.24219 5.5898-0.25 10.047 0.98828 13.215 3.6758zm-5.918 2.8555 4.6797 4.6797c1.3945 1.3945-0.73047 3.5234-2.1289 2.1055l-4.6562-4.6562c-1.4219-1.3945 0.70703-3.5234 2.1055-2.1289zm-7.1406 14.254h6.6055c1.9727 0 1.9727 2.9922 0 2.9922h-6.6055c-1.9727 0-1.9727-2.9922 0-2.9922zm5.0312 15.117 4.6562-4.6797c1.3945-1.3945 3.5234 0.73047 2.1289 2.1289l-4.6797 4.6562c-1.3945 1.4219-3.5234-0.70703-2.1055-2.1055zm17.227-34.379v6.6055c0 1.9727-2.9922 1.9727-2.9922 0v-6.6055c0-1.9961 2.9922-1.9961 2.9922 0zm14.254 7.1367-4.6797 4.6562c-1.3945 1.418-3.5234-0.71094-2.1289-2.1055l4.6797-4.6797c1.3945-1.3945 3.5234 0.73438 2.1289 2.1289zm-7.0508 26.578 4.6797 4.6758c1.3945 1.3984-0.73047 3.5039-2.1289 2.1055l-4.6562-4.6523c-1.418-1.418 0.71094-3.5234 2.1055-2.1289zm-7.1367 14.234h6.6055c1.9727 0 1.9727 3.0156 0 3.0156h-6.6055c-1.9727-0.003906-1.9727-3.0156 0-3.0156zm5.0312 15.117 4.6562-4.6562c1.3945-1.3945 3.5234 0.71094 2.1289 2.1289l-4.6797 4.6523c-1.3945 1.3984-3.5234-0.70703-2.1055-2.125zm14.23 7.1602v-6.6055c0-1.9922 2.9922-1.9922 2.9922 0v6.6055c0 1.9727-2.9922 1.9727-2.9922 0zm15.117-5.0312-4.6797-4.6523c-1.3945-1.418 0.73047-3.5234 2.1289-2.1289l4.6797 4.6562c1.3984 1.4141-0.73047 3.5195-2.1289 2.125zm7.1406-14.234h-6.6055c-1.9727 0-1.9727-3.0156 0-3.0156h6.6055c1.9922 0.003906 1.9922 3.0156 0 3.0156zm-19.266-22.254v6.5859c0 1.9961-2.9922 1.9961-2.9922 0v-6.5859c0-1.9961 2.9922-1.9961 2.9922 0zm14.254 7.1367-4.6797 4.6523c-1.3945 1.3984-3.5234-0.70703-2.1289-2.1055l4.6797-4.6758c1.3984-1.3945 3.5273 0.71094 2.1289 2.1289zm-15.738 18.156c2.5078 0 4.5234-2.0391 4.5234-4.543 0-2.5078-2.0195-4.5469-4.5234-4.5469-2.5234 0-4.543 2.0391-4.543 4.5469 0 2.5039 2.0156 4.543 4.543 4.543z" fill-rule="evenodd"/>
<text x="0.0" y="117.5" font-size="5.0" font-weight="bold" font-family="Arbeit Regular, Helvetica, Arial-Unicode, Arial, Sans-serif" fill="#000000ff">Created by siti muayanah</text><text x="0.0" y="122.5" font-size="5.0" font-weight="bold" font-family="Arbeit Regular, Helvetica, Arial-Unicode, Arial, Sans-serif" fill="#000000">from Noun Project</text></svg>